<?xml version='1.0' standalone='no'?><!DOCTYPE svg PUBLIC '-//W3C//DTD SVG 1.1//EN' 'http://www.w3.org/Graphics/SVG/1.1/DTD/svg11.dtd'><svg width="400mm" height="300mm" viewBox="0 0 400 300" version="1.1" xmlns="http://www.w3.org/2000/svg"><path d="M1 1v18.24376681700284h3.9v18.123766817002842h-3.9v18.24376681700284h3.9v18.123766817002842h-3.9v18.24376681700284h3.9v18.123766817002842h-3.9v18.24376681700284h3.9v18.123766817002842h-3.9v18.24376681700284h3.9v18.123766817002842h-3.9v18.24376681700284h3.9v18.123766817002842h-3.9v18.24376681700284h3.9v18.123766817002842h-3.9v18.24376681700284h3.9v18.123766817002842h-3.9v18.24376681700284h3.9v18.123766817002842h-3.9v18.24376681700284h3.9v18.123766817002842h-3.9v18.24376681700284h73.23969628597631v-18.24376681700284h-3.9v-18.123766817002842h3.9v-18.24376681700284h-3.9v-18.123766817002842h3.9v-18.24376681700284h-3.9v-18.123766817002842h3.9v-18.24376681700284h-3.9v-18.123766817002842h3.9v-18.24376681700284h-3.9v-18.123766817002842h3.9v-18.24376681700284h-3.9v-18.123766817002842h3.9v-18.24376681700284h-3.9v-18.123766817002842h3.9v-18.24376681700284h-3.9v-18.123766817002842h3.9v-18.24376681700284h-3.9v-18.123766817002842h3.9v-18.24376681700284h-3.9v-18.123766817002842h3.9v-18.24376681700284Z"></path><path d="M79.07969628597631 1v18.18376681700284h-3.9v18.24376681700284h3.9v18.123766817002842h-3.9v18.24376681700284h3.9v18.123766817002842h-3.9v18.24376681700284h3.9v18.123766817002842h-3.9v18.24376681700284h3.9v18.123766817002842h-3.9v18.24376681700284h3.9v18.123766817002842h-3.9v18.24376681700284h3.9v18.123766817002842h-3.9v18.24376681700284h3.9v18.123766817002842h-3.9v18.24376681700284h3.9v18.123766817002842h-3.9v18.24376681700284h3.9v18.123766817002842h-3.9v18.24376681700284h3.9v18.123766817002842v0.06h65.43969628597631v-18.18376681700284h3.9v-18.24376681700284h-3.9v-18.123766817002842h3.9v-18.24376681700284h-3.9v-18.123766817002842h3.9v-18.24376681700284h-3.9v-18.123766817002842h3.9v-18.24376681700284h-3.9v-18.123766817002842h3.9v-18.24376681700284h-3.9v-18.123766817002842h3.9v-18.24376681700284h-3.9v-18.123766817002842h3.9v-18.24376681700284h-3.9v-18.123766817002842h3.9v-18.24376681700284h-3.9v-18.123766817002842h3.9v-18.24376681700284h-3.9v-18.123766817002842h3.9v-18.24376681700284h-3.9v-18.123766817002842v-0.06Z"></path><path d="M149.3593925719526 1v18.24376681700284h3.9v18.123766817002842h-3.9v18.24376681700284h3.9v18.123766817002842h-3.9v18.24376681700284h3.9v18.123766817002842h-3.9v18.24376681700284h3.9v18.123766817002842h-3.9v18.24376681700284h3.9v18.123766817002842h-3.9v18.24376681700284h3.9v18.123766817002842h-3.9v18.24376681700284h3.9v18.123766817002842h-3.9v18.24376681700284h3.9v18.123766817002842h-3.9v18.24376681700284h3.9v18.123766817002842h-3.9v18.24376681700284h3.9v18.123766817002842h-3.9v18.24376681700284h73.23969628597631v-18.24376681700284h-3.9v-18.123766817002842h3.9v-18.24376681700284h-3.9v-18.123766817002842h3.9v-18.24376681700284h-3.9v-18.123766817002842h3.9v-18.24376681700284h-3.9v-18.123766817002842h3.9v-18.24376681700284h-3.9v-18.123766817002842h3.9v-18.24376681700284h-3.9v-18.123766817002842h3.9v-18.24376681700284h-3.9v-18.123766817002842h3.9v-18.24376681700284h-3.9v-18.123766817002842h3.9v-18.24376681700284h-3.9v-18.123766817002842h3.9v-18.24376681700284h-3.9v-18.123766817002842h3.9v-18.24376681700284Z"></path><path d="M227.4390888579289 1v18.18376681700284h-3.9v18.24376681700284h3.9v18.123766817002842h-3.9v18.24376681700284h3.9v18.123766817002842h-3.9v18.24376681700284h3.9v18.123766817002842h-3.9v18.24376681700284h3.9v18.123766817002842h-3.9v18.24376681700284h3.9v18.123766817002842h-3.9v18.24376681700284h3.9v18.123766817002842h-3.9v18.24376681700284h3.9v18.123766817002842h-3.9v18.24376681700284h3.9v18.123766817002842h-3.9v18.24376681700284h3.9v18.123766817002842h-3.9v18.24376681700284h3.9v18.123766817002842v0.06h65.43969628597631v-18.18376681700284h3.9v-18.24376681700284h-3.9v-18.123766817002842h3.9v-18.24376681700284h-3.9v-18.123766817002842h3.9v-18.24376681700284h-3.9v-18.123766817002842h3.9v-18.24376681700284h-3.9v-18.123766817002842h3.9v-18.24376681700284h-3.9v-18.123766817002842h3.9v-18.24376681700284h-3.9v-18.123766817002842h3.9v-18.24376681700284h-3.9v-18.123766817002842h3.9v-18.24376681700284h-3.9v-18.123766817002842h3.9v-18.24376681700284h-3.9v-18.123766817002842h3.9v-18.24376681700284h-3.9v-18.123766817002842v-0.06Z"></path><path d="M297.7187851439052 1v17.41723196168453h3.9v17.29723196168453h-3.9v17.41723196168453h3.9v17.29723196168453h-3.9v17.41723196168453h3.9v17.29723196168453h-3.9v17.41723196168453h3.9v17.29723196168453h-3.9v17.41723196168453h3.9v17.29723196168453h-3.9v17.41723196168453h16.47593925719526v3.9h16.53593925719526v-3.9h16.415939257195262v3.9h16.53593925719526v-3.9h16.47593925719526v-17.41723196168453h-3.9v-17.29723196168453h3.9v-17.41723196168453h-3.9v-17.29723196168453h3.9v-17.41723196168453h-3.9v-17.29723196168453h3.9v-17.41723196168453h-3.9v-17.29723196168453h3.9v-17.41723196168453h-3.9v-17.29723196168453h3.9v-17.41723196168453Z"></path><path d="M301.6187851439052 196.94955157852982v17.35723196168453h-3.9v17.41723196168453h3.9v17.29723196168453h-3.9v17.41723196168453h3.9v17.29723196168453h-3.9v17.41723196168453h3.9v17.29723196168453h-3.9v17.41723196168453h3.9v17.29723196168453h-3.9v17.41723196168453h3.9v17.29723196168453v0.06h12.575939257195262v3.9h16.53593925719526v-3.9h16.415939257195262v3.9h16.53593925719526v-3.9h12.575939257195262v-17.35723196168453h3.9v-17.41723196168453h-3.9v-17.29723196168453h3.9v-17.41723196168453h-3.9v-17.29723196168453h3.9v-17.41723196168453h-3.9v-17.29723196168453h3.9v-17.41723196168453h-3.9v-17.29723196168453h3.9v-17.41723196168453h-3.9v-17.29723196168453v-0.06Z"></path><path d="M381.09848142988153 1v17.41723196168453h3.9v17.29723196168453h-3.9v17.41723196168453h3.9v17.29723196168453h-3.9v17.41723196168453h3.9v17.29723196168453h-3.9v17.41723196168453h3.9v17.29723196168453h-3.9v17.41723196168453h3.9v17.29723196168453h-3.9v17.41723196168453h16.47593925719526v3.9h16.53593925719526v-3.9h16.415939257195262v3.9h16.53593925719526v-3.9h16.47593925719526v-17.41723196168453h-3.9v-17.29723196168453h3.9v-17.41723196168453h-3.9v-17.29723196168453h3.9v-17.41723196168453h-3.9v-17.29723196168453h3.9v-17.41723196168453h-3.9v-17.29723196168453h3.9v-17.41723196168453h-3.9v-17.29723196168453h3.9v-17.41723196168453Z"></path><path d="M384.9984814298815 196.94955157852982v17.35723196168453h-3.9v17.41723196168453h3.9v17.29723196168453h-3.9v17.41723196168453h3.9v17.29723196168453h-3.9v17.41723196168453h3.9v17.29723196168453h-3.9v17.41723196168453h3.9v17.29723196168453h-3.9v17.41723196168453h3.9v17.29723196168453v0.06h12.575939257195262v3.9h16.53593925719526v-3.9h16.415939257195262v3.9h16.53593925719526v-3.9h12.575939257195262v-17.35723196168453h3.9v-17.41723196168453h-3.9v-17.29723196168453h3.9v-17.41723196168453h-3.9v-17.29723196168453h3.9v-17.41723196168453h-3.9v-17.29723196168453h3.9v-17.41723196168453h-3.9v-17.29723196168453h3.9v-17.41723196168453h-3.9v-17.29723196168453v-0.06Z"></path><path d="M464.47817771585784 1v16.53593925719526h3.9v16.415939257195262h-3.9v16.53593925719526h3.9v16.415939257195262h-3.9v16.53593925719526h16.53593925719526v-3.9h16.415939257195262v3.9h16.53593925719526v-3.9h16.415939257195262v3.9h16.53593925719526v-16.53593925719526h-3.9v-16.415939257195262h3.9v-16.53593925719526h-3.9v-16.415939257195262h3.9v-16.53593925719526h-16.53593925719526v3.9h-16.415939257195262v-3.9h-16.53593925719526v3.9h-16.415939257195262v-3.9h-16.53593925719526Z"></path><path d="M464.47817771585784 85.1996962859763v295.57878514390524h190.9895515785298v-295.57878514390524Z"></path></svg>