<?xml version='1.0' standalone='no'?><!DOCTYPE svg PUBLIC '-//W3C//DTD SVG 1.1//EN' 'http://www.w3.org/Graphics/SVG/1.1/DTD/svg11.dtd'><svg width="400mm" height="300mm" viewBox="0 0 400 300" version="1.1" xmlns="http://www.w3.org/2000/svg"><path d="M1 1v19.57732829913454h3.9v19.45732829913454h-3.9v19.57732829913454h3.9v19.45732829913454h-3.9v19.57732829913454h3.9v19.45732829913454h-3.9v19.57732829913454h3.9v19.45732829913454h-3.9v19.57732829913454h3.9v19.45732829913454h-3.9v19.57732829913454h3.9v19.45732829913454h-3.9v19.57732829913454h3.9v19.45732829913454h-3.9v19.57732829913454h3.9v19.45732829913454h-3.9v19.57732829913454h70.46781165452727v-19.57732829913454h-3.9v-19.45732829913454h3.9v-19.57732829913454h-3.9v-19.45732829913454h3.9v-19.57732829913454h-3.9v-19.45732829913454h3.9v-19.57732829913454h-3.9v-19.45732829913454h3.9v-19.57732829913454h-3.9v-19.45732829913454h3.9v-19.57732829913454h-3.9v-19.45732829913454h3.9v-19.57732829913454h-3.9v-19.45732829913454h3.9v-19.57732829913454h-3.9v-19.45732829913454h3.9v-19.57732829913454Z"></path><path d="M76.30781165452727 1v19.51732829913454h-3.9v19.57732829913454h3.9v19.45732829913454h-3.9v19.57732829913454h3.9v19.45732829913454h-3.9v19.57732829913454h3.9v19.45732829913454h-3.9v19.57732829913454h3.9v19.45732829913454h-3.9v19.57732829913454h3.9v19.45732829913454h-3.9v19.57732829913454h3.9v19.45732829913454h-3.9v19.57732829913454h3.9v19.45732829913454h-3.9v19.57732829913454h3.9v19.45732829913454v0.06h62.66781165452726v-19.51732829913454h3.9v-19.57732829913454h-3.9v-19.45732829913454h3.9v-19.57732829913454h-3.9v-19.45732829913454h3.9v-19.57732829913454h-3.9v-19.45732829913454h3.9v-19.57732829913454h-3.9v-19.45732829913454h3.9v-19.57732829913454h-3.9v-19.45732829913454h3.9v-19.57732829913454h-3.9v-19.45732829913454h3.9v-19.57732829913454h-3.9v-19.45732829913454h3.9v-19.57732829913454h-3.9v-19.45732829913454v-0.06Z"></path><path d="M143.81562330905453 1v19.57732829913454h3.9v19.45732829913454h-3.9v19.57732829913454h3.9v19.45732829913454h-3.9v19.57732829913454h3.9v19.45732829913454h-3.9v19.57732829913454h3.9v19.45732829913454h-3.9v19.57732829913454h3.9v19.45732829913454h-3.9v19.57732829913454h3.9v19.45732829913454h-3.9v19.57732829913454h3.9v19.45732829913454h-3.9v19.57732829913454h3.9v19.45732829913454h-3.9v19.57732829913454h70.46781165452727v-19.57732829913454h-3.9v-19.45732829913454h3.9v-19.57732829913454h-3.9v-19.45732829913454h3.9v-19.57732829913454h-3.9v-19.45732829913454h3.9v-19.57732829913454h-3.9v-19.45732829913454h3.9v-19.57732829913454h-3.9v-19.45732829913454h3.9v-19.57732829913454h-3.9v-19.45732829913454h3.9v-19.57732829913454h-3.9v-19.45732829913454h3.9v-19.57732829913454h-3.9v-19.45732829913454h3.9v-19.57732829913454Z"></path><path d="M219.1234349635818 1v19.51732829913454h-3.9v19.57732829913454h3.9v19.45732829913454h-3.9v19.57732829913454h3.9v19.45732829913454h-3.9v19.57732829913454h3.9v19.45732829913454h-3.9v19.57732829913454h3.9v19.45732829913454h-3.9v19.57732829913454h3.9v19.45732829913454h-3.9v19.57732829913454h3.9v19.45732829913454h-3.9v19.57732829913454h3.9v19.45732829913454h-3.9v19.57732829913454h3.9v19.45732829913454v0.06h62.66781165452726v-19.51732829913454h3.9v-19.57732829913454h-3.9v-19.45732829913454h3.9v-19.57732829913454h-3.9v-19.45732829913454h3.9v-19.57732829913454h-3.9v-19.45732829913454h3.9v-19.57732829913454h-3.9v-19.45732829913454h3.9v-19.57732829913454h-3.9v-19.45732829913454h3.9v-19.57732829913454h-3.9v-19.45732829913454h3.9v-19.57732829913454h-3.9v-19.45732829913454h3.9v-19.57732829913454h-3.9v-19.45732829913454v-0.06Z"></path><path d="M286.63124661810906 1v18.49303228251595h3.9v18.373032282515954h-3.9v18.49303228251595h3.9v18.373032282515954h-3.9v18.49303228251595h3.9v18.373032282515954h-3.9v18.49303228251595h3.9v18.373032282515954h-3.9v18.49303228251595h15.92156233090545v3.9h15.98156233090545v-3.9h15.86156233090545v3.9h15.98156233090545v-3.9h15.92156233090545v-18.49303228251595h-3.9v-18.373032282515954h3.9v-18.49303228251595h-3.9v-18.373032282515954h3.9v-18.49303228251595h-3.9v-18.373032282515954h3.9v-18.49303228251595h-3.9v-18.373032282515954h3.9v-18.49303228251595Z"></path><path d="M290.53124661810904 171.9172905426436v18.433032282515953h-3.9v18.49303228251595h3.9v18.373032282515954h-3.9v18.49303228251595h3.9v18.373032282515954h-3.9v18.49303228251595h3.9v18.373032282515954h-3.9v18.49303228251595h3.9v18.373032282515954v0.06h12.02156233090545v3.9h15.98156233090545v-3.9h15.86156233090545v3.9h15.98156233090545v-3.9h12.02156233090545v-18.433032282515953h3.9v-18.49303228251595h-3.9v-18.373032282515954h3.9v-18.49303228251595h-3.9v-18.373032282515954h3.9v-18.49303228251595h-3.9v-18.373032282515954h3.9v-18.49303228251595h-3.9v-18.373032282515954v-0.06Z"></path><path d="M367.2390582726363 1v18.49303228251595h3.9v18.373032282515954h-3.9v18.49303228251595h3.9v18.373032282515954h-3.9v18.49303228251595h3.9v18.373032282515954h-3.9v18.49303228251595h3.9v18.373032282515954h-3.9v18.49303228251595h15.92156233090545v3.9h15.98156233090545v-3.9h15.86156233090545v3.9h15.98156233090545v-3.9h15.92156233090545v-18.49303228251595h-3.9v-18.373032282515954h3.9v-18.49303228251595h-3.9v-18.373032282515954h3.9v-18.49303228251595h-3.9v-18.373032282515954h3.9v-18.49303228251595h-3.9v-18.373032282515954h3.9v-18.49303228251595Z"></path><path d="M371.1390582726363 171.9172905426436v18.433032282515953h-3.9v18.49303228251595h3.9v18.373032282515954h-3.9v18.49303228251595h3.9v18.373032282515954h-3.9v18.49303228251595h3.9v18.373032282515954h-3.9v18.49303228251595h3.9v18.373032282515954v0.06h12.02156233090545v3.9h15.98156233090545v-3.9h15.86156233090545v3.9h15.98156233090545v-3.9h12.02156233090545v-18.433032282515953h3.9v-18.49303228251595h-3.9v-18.373032282515954h3.9v-18.49303228251595h-3.9v-18.373032282515954h3.9v-18.49303228251595h-3.9v-18.373032282515954h3.9v-18.49303228251595h-3.9v-18.373032282515954v-0.06Z"></path><path d="M447.8468699271636 1v15.98156233090545h3.9v15.86156233090545h-3.9v15.98156233090545h3.9v15.86156233090545h-3.9v15.98156233090545h15.98156233090545v-3.9h15.86156233090545v3.9h15.98156233090545v-3.9h15.86156233090545v3.9h15.98156233090545v-15.98156233090545h-3.9v-15.86156233090545h3.9v-15.98156233090545h-3.9v-15.86156233090545h3.9v-15.98156233090545h-15.98156233090545v3.9h-15.86156233090545v-3.9h-15.98156233090545v3.9h-15.86156233090545v-3.9h-15.98156233090545Z"></path><path d="M447.8468699271636 82.42781165452726v284.491246618109h165.9572905426436v-284.491246618109Z"></path></svg>