<?xml version='1.0' standalone='no'?><!DOCTYPE svg PUBLIC '-//W3C//DTD SVG 1.1//EN' 'http://www.w3.org/Graphics/SVG/1.1/DTD/svg11.dtd'><svg width="400mm" height="300mm" viewBox="0 0 400 300" version="1.1" xmlns="http://www.w3.org/2000/svg"><path d="M1 1v18.331374769986486h3.9v18.211374769986488h-3.9v18.331374769986486h3.9v18.211374769986488h-3.9v18.331374769986486h3.9v18.211374769986488h-3.9v18.331374769986486h3.9v18.211374769986488h-3.9v18.331374769986486h3.9v18.211374769986488h-3.9v18.331374769986486h3.9v18.211374769986488h-3.9v18.331374769986486h3.9v18.211374769986488h-3.9v18.331374769986486h3.9v18.211374769986488h-3.9v18.331374769986486h67.81344583773371v-18.331374769986486h-3.9v-18.211374769986488h3.9v-18.331374769986486h-3.9v-18.211374769986488h3.9v-18.331374769986486h-3.9v-18.211374769986488h3.9v-18.331374769986486h-3.9v-18.211374769986488h3.9v-18.331374769986486h-3.9v-18.211374769986488h3.9v-18.331374769986486h-3.9v-18.211374769986488h3.9v-18.331374769986486h-3.9v-18.211374769986488h3.9v-18.331374769986486h-3.9v-18.211374769986488h3.9v-18.331374769986486Z"></path><path d="M73.65344583773371 1v18.271374769986487h-3.9v18.331374769986486h3.9v18.211374769986488h-3.9v18.331374769986486h3.9v18.211374769986488h-3.9v18.331374769986486h3.9v18.211374769986488h-3.9v18.331374769986486h3.9v18.211374769986488h-3.9v18.331374769986486h3.9v18.211374769986488h-3.9v18.331374769986486h3.9v18.211374769986488h-3.9v18.331374769986486h3.9v18.211374769986488h-3.9v18.331374769986486h3.9v18.211374769986488v0.06h60.013445837733705v-18.271374769986487h3.9v-18.331374769986486h-3.9v-18.211374769986488h3.9v-18.331374769986486h-3.9v-18.211374769986488h3.9v-18.331374769986486h-3.9v-18.211374769986488h3.9v-18.331374769986486h-3.9v-18.211374769986488h3.9v-18.331374769986486h-3.9v-18.211374769986488h3.9v-18.331374769986486h-3.9v-18.211374769986488h3.9v-18.331374769986486h-3.9v-18.211374769986488h3.9v-18.331374769986486h-3.9v-18.211374769986488v-0.06Z"></path><path d="M138.50689167546741 1v18.331374769986486h3.9v18.211374769986488h-3.9v18.331374769986486h3.9v18.211374769986488h-3.9v18.331374769986486h3.9v18.211374769986488h-3.9v18.331374769986486h3.9v18.211374769986488h-3.9v18.331374769986486h3.9v18.211374769986488h-3.9v18.331374769986486h3.9v18.211374769986488h-3.9v18.331374769986486h3.9v18.211374769986488h-3.9v18.331374769986486h3.9v18.211374769986488h-3.9v18.331374769986486h67.81344583773371v-18.331374769986486h-3.9v-18.211374769986488h3.9v-18.331374769986486h-3.9v-18.211374769986488h3.9v-18.331374769986486h-3.9v-18.211374769986488h3.9v-18.331374769986486h-3.9v-18.211374769986488h3.9v-18.331374769986486h-3.9v-18.211374769986488h3.9v-18.331374769986486h-3.9v-18.211374769986488h3.9v-18.331374769986486h-3.9v-18.211374769986488h3.9v-18.331374769986486h-3.9v-18.211374769986488h3.9v-18.331374769986486Z"></path><path d="M211.16033751320114 1v18.271374769986487h-3.9v18.331374769986486h3.9v18.211374769986488h-3.9v18.331374769986486h3.9v18.211374769986488h-3.9v18.331374769986486h3.9v18.211374769986488h-3.9v18.331374769986486h3.9v18.211374769986488h-3.9v18.331374769986486h3.9v18.211374769986488h-3.9v18.331374769986486h3.9v18.211374769986488h-3.9v18.331374769986486h3.9v18.211374769986488h-3.9v18.331374769986486h3.9v18.211374769986488v0.06h60.013445837733705v-18.271374769986487h3.9v-18.331374769986486h-3.9v-18.211374769986488h3.9v-18.331374769986486h-3.9v-18.211374769986488h3.9v-18.331374769986486h-3.9v-18.211374769986488h3.9v-18.331374769986486h-3.9v-18.211374769986488h3.9v-18.331374769986486h-3.9v-18.211374769986488h3.9v-18.331374769986486h-3.9v-18.211374769986488h3.9v-18.331374769986486h-3.9v-18.211374769986488h3.9v-18.331374769986486h-3.9v-18.211374769986488v-0.06Z"></path><path d="M276.01378335093483 1v17.316298393876124h3.9v17.196298393876127h-3.9v17.316298393876124h3.9v17.196298393876127h-3.9v17.316298393876124h3.9v17.196298393876127h-3.9v17.316298393876124h3.9v17.196298393876127h-3.9v17.316298393876124h15.39068916754674v3.9h15.45068916754674v-3.9h15.330689167546739v3.9h15.45068916754674v-3.9h15.39068916754674v-17.316298393876124h-3.9v-17.196298393876127h3.9v-17.316298393876124h-3.9v-17.196298393876127h3.9v-17.316298393876124h-3.9v-17.196298393876127h3.9v-17.316298393876124h-3.9v-17.196298393876127h3.9v-17.316298393876124Z"></path><path d="M279.9137833509348 161.32668554488515v17.256298393876126h-3.9v17.316298393876124h3.9v17.196298393876127h-3.9v17.316298393876124h3.9v17.196298393876127h-3.9v17.316298393876124h3.9v17.196298393876127h-3.9v17.316298393876124h3.9v17.196298393876127v0.06h11.490689167546739v3.9h15.45068916754674v-3.9h15.330689167546739v3.9h15.45068916754674v-3.9h11.490689167546739v-17.256298393876126h3.9v-17.316298393876124h-3.9v-17.196298393876127h3.9v-17.316298393876124h-3.9v-17.196298393876127h3.9v-17.316298393876124h-3.9v-17.196298393876127h3.9v-17.316298393876124h-3.9v-17.196298393876127v-0.06Z"></path><path d="M353.9672291886685 1v17.316298393876124h3.9v17.196298393876127h-3.9v17.316298393876124h3.9v17.196298393876127h-3.9v17.316298393876124h3.9v17.196298393876127h-3.9v17.316298393876124h3.9v17.196298393876127h-3.9v17.316298393876124h15.39068916754674v3.9h15.45068916754674v-3.9h15.330689167546739v3.9h15.45068916754674v-3.9h15.39068916754674v-17.316298393876124h-3.9v-17.196298393876127h3.9v-17.316298393876124h-3.9v-17.196298393876127h3.9v-17.316298393876124h-3.9v-17.196298393876127h3.9v-17.316298393876124h-3.9v-17.196298393876127h3.9v-17.316298393876124Z"></path><path d="M357.8672291886685 161.32668554488515v17.256298393876126h-3.9v17.316298393876124h3.9v17.196298393876127h-3.9v17.316298393876124h3.9v17.196298393876127h-3.9v17.316298393876124h3.9v17.196298393876127h-3.9v17.316298393876124h3.9v17.196298393876127v0.06h11.490689167546739v3.9h15.45068916754674v-3.9h15.330689167546739v3.9h15.45068916754674v-3.9h11.490689167546739v-17.256298393876126h3.9v-17.316298393876124h-3.9v-17.196298393876127h3.9v-17.316298393876124h-3.9v-17.196298393876127h3.9v-17.316298393876124h-3.9v-17.196298393876127h3.9v-17.316298393876124h-3.9v-17.196298393876127v-0.06Z"></path><path d="M431.9206750264022 1v15.45068916754674h3.9v15.330689167546739h-3.9v15.45068916754674h3.9v15.330689167546739h-3.9v15.45068916754674h15.45068916754674v-3.9h15.330689167546739v3.9h15.45068916754674v-3.9h15.330689167546739v3.9h15.45068916754674v-15.45068916754674h-3.9v-15.330689167546739h3.9v-15.45068916754674h-3.9v-15.330689167546739h3.9v-15.45068916754674h-15.45068916754674v3.9h-15.330689167546739v-3.9h-15.45068916754674v3.9h-15.330689167546739v-3.9h-15.45068916754674Z"></path><path d="M431.9206750264022 79.7734458377337v273.8737833509348h155.36668554488514v-273.8737833509348Z"></path></svg>