<?xml version='1.0' standalone='no'?><!DOCTYPE svg PUBLIC '-//W3C//DTD SVG 1.1//EN' 'http://www.w3.org/Graphics/SVG/1.1/DTD/svg11.dtd'><svg width="400mm" height="300mm" viewBox="0 0 400 300" version="1.1" xmlns="http://www.w3.org/2000/svg"><path d="M1 1v19.438441314972373h3.9v19.318441314972375h-3.9v19.438441314972373h3.9v19.318441314972375h-3.9v19.438441314972373h3.9v19.318441314972375h-3.9v19.438441314972373h3.9v19.318441314972375h-3.9v19.438441314972373h3.9v19.318441314972375h-3.9v19.438441314972373h3.9v19.318441314972375h-3.9v19.438441314972373h3.9v19.318441314972375h-3.9v19.438441314972373h65.27161642339804v-19.438441314972373h-3.9v-19.318441314972375h3.9v-19.438441314972373h-3.9v-19.318441314972375h3.9v-19.438441314972373h-3.9v-19.318441314972375h3.9v-19.438441314972373h-3.9v-19.318441314972375h3.9v-19.438441314972373h-3.9v-19.318441314972375h3.9v-19.438441314972373h-3.9v-19.318441314972375h3.9v-19.438441314972373h-3.9v-19.318441314972375h3.9v-19.438441314972373Z"></path><path d="M71.11161642339805 1v19.378441314972374h-3.9v19.438441314972373h3.9v19.318441314972375h-3.9v19.438441314972373h3.9v19.318441314972375h-3.9v19.438441314972373h3.9v19.318441314972375h-3.9v19.438441314972373h3.9v19.318441314972375h-3.9v19.438441314972373h3.9v19.318441314972375h-3.9v19.438441314972373h3.9v19.318441314972375h-3.9v19.438441314972373h3.9v19.318441314972375v0.06h57.47161642339804v-19.378441314972374h3.9v-19.438441314972373h-3.9v-19.318441314972375h3.9v-19.438441314972373h-3.9v-19.318441314972375h3.9v-19.438441314972373h-3.9v-19.318441314972375h3.9v-19.438441314972373h-3.9v-19.318441314972375h3.9v-19.438441314972373h-3.9v-19.318441314972375h3.9v-19.438441314972373h-3.9v-19.318441314972375h3.9v-19.438441314972373h-3.9v-19.318441314972375v-0.06Z"></path><path d="M133.42323284679608 1v19.438441314972373h3.9v19.318441314972375h-3.9v19.438441314972373h3.9v19.318441314972375h-3.9v19.438441314972373h3.9v19.318441314972375h-3.9v19.438441314972373h3.9v19.318441314972375h-3.9v19.438441314972373h3.9v19.318441314972375h-3.9v19.438441314972373h3.9v19.318441314972375h-3.9v19.438441314972373h3.9v19.318441314972375h-3.9v19.438441314972373h65.27161642339804v-19.438441314972373h-3.9v-19.318441314972375h3.9v-19.438441314972373h-3.9v-19.318441314972375h3.9v-19.438441314972373h-3.9v-19.318441314972375h3.9v-19.438441314972373h-3.9v-19.318441314972375h3.9v-19.438441314972373h-3.9v-19.318441314972375h3.9v-19.438441314972373h-3.9v-19.318441314972375h3.9v-19.438441314972373h-3.9v-19.318441314972375h3.9v-19.438441314972373Z"></path><path d="M203.53484927019414 1v19.378441314972374h-3.9v19.438441314972373h3.9v19.318441314972375h-3.9v19.438441314972373h3.9v19.318441314972375h-3.9v19.438441314972373h3.9v19.318441314972375h-3.9v19.438441314972373h3.9v19.318441314972375h-3.9v19.438441314972373h3.9v19.318441314972375h-3.9v19.438441314972373h3.9v19.318441314972375h-3.9v19.438441314972373h3.9v19.318441314972375v0.06h57.47161642339804v-19.378441314972374h3.9v-19.438441314972373h-3.9v-19.318441314972375h3.9v-19.438441314972373h-3.9v-19.318441314972375h3.9v-19.438441314972373h-3.9v-19.318441314972375h3.9v-19.438441314972373h-3.9v-19.318441314972375h3.9v-19.438441314972373h-3.9v-19.318441314972375h3.9v-19.438441314972373h-3.9v-19.318441314972375h3.9v-19.438441314972373h-3.9v-19.318441314972375v-0.06Z"></path><path d="M265.84646569359217 1v16.208701095810312h3.9v16.088701095810315h-3.9v16.208701095810312h3.9v16.088701095810315h-3.9v16.208701095810312h3.9v16.088701095810315h-3.9v16.208701095810312h3.9v16.088701095810315h-3.9v16.208701095810312h14.882323284679606v3.9h14.942323284679606v-3.9h14.822323284679605v3.9h14.942323284679606v-3.9h14.882323284679606v-16.208701095810312h-3.9v-16.088701095810315h3.9v-16.208701095810312h-3.9v-16.088701095810315h3.9v-16.208701095810312h-3.9v-16.088701095810315h3.9v-16.208701095810312h-3.9v-16.088701095810315h3.9v-16.208701095810312Z"></path><path d="M269.74646569359214 151.35830986229283v16.148701095810313h-3.9v16.208701095810312h3.9v16.088701095810315h-3.9v16.208701095810312h3.9v16.088701095810315h-3.9v16.208701095810312h3.9v16.088701095810315h-3.9v16.208701095810312h3.9v16.088701095810315v0.06h10.982323284679605v3.9h14.942323284679606v-3.9h14.822323284679605v3.9h14.942323284679606v-3.9h10.982323284679605v-16.148701095810313h3.9v-16.208701095810312h-3.9v-16.088701095810315h3.9v-16.208701095810312h-3.9v-16.088701095810315h3.9v-16.208701095810312h-3.9v-16.088701095810315h3.9v-16.208701095810312h-3.9v-16.088701095810315v-0.06Z"></path><path d="M341.2580821169902 1v16.208701095810312h3.9v16.088701095810315h-3.9v16.208701095810312h3.9v16.088701095810315h-3.9v16.208701095810312h3.9v16.088701095810315h-3.9v16.208701095810312h3.9v16.088701095810315h-3.9v16.208701095810312h14.882323284679606v3.9h14.942323284679606v-3.9h14.822323284679605v3.9h14.942323284679606v-3.9h14.882323284679606v-16.208701095810312h-3.9v-16.088701095810315h3.9v-16.208701095810312h-3.9v-16.088701095810315h3.9v-16.208701095810312h-3.9v-16.088701095810315h3.9v-16.208701095810312h-3.9v-16.088701095810315h3.9v-16.208701095810312Z"></path><path d="M345.15808211699016 151.35830986229283v16.148701095810313h-3.9v16.208701095810312h3.9v16.088701095810315h-3.9v16.208701095810312h3.9v16.088701095810315h-3.9v16.208701095810312h3.9v16.088701095810315h-3.9v16.208701095810312h3.9v16.088701095810315v0.06h10.982323284679605v3.9h14.942323284679606v-3.9h14.822323284679605v3.9h14.942323284679606v-3.9h10.982323284679605v-16.148701095810313h3.9v-16.208701095810312h-3.9v-16.088701095810315h3.9v-16.208701095810312h-3.9v-16.088701095810315h3.9v-16.208701095810312h-3.9v-16.088701095810315h3.9v-16.208701095810312h-3.9v-16.088701095810315v-0.06Z"></path><path d="M416.6696985403882 1v14.942323284679606h3.9v14.822323284679605h-3.9v14.942323284679606h3.9v14.822323284679605h-3.9v14.942323284679606h14.942323284679606v-3.9h14.822323284679605v3.9h14.942323284679606v-3.9h14.822323284679605v3.9h14.942323284679606v-14.942323284679606h-3.9v-14.822323284679605h3.9v-14.942323284679606h-3.9v-14.822323284679605h3.9v-14.942323284679606h-14.942323284679606v3.9h-14.822323284679605v-3.9h-14.942323284679606v3.9h-14.822323284679605v-3.9h-14.942323284679606Z"></path><path d="M416.6696985403882 77.23161642339804v263.7064656935921h145.39830986229282v-263.7064656935921Z"></path></svg>