<?xml version='1.0' standalone='no'?><!DOCTYPE svg PUBLIC '-//W3C//DTD SVG 1.1//EN' 'http://www.w3.org/Graphics/SVG/1.1/DTD/svg11.dtd'><svg width="400mm" height="300mm" viewBox="0 0 400 300" version="1.1" xmlns="http://www.w3.org/2000/svg"><path d="M1 1v18.187481201644612h3.9v18.067481201644615h-3.9v18.187481201644612h3.9v18.067481201644615h-3.9v18.187481201644612h3.9v18.067481201644615h-3.9v18.187481201644612h3.9v18.067481201644615h-3.9v18.187481201644612h3.9v18.067481201644615h-3.9v18.187481201644612h3.9v18.067481201644615h-3.9v18.187481201644612h3.9v18.067481201644615h-3.9v18.187481201644612h62.837552237254066v-18.187481201644612h-3.9v-18.067481201644615h3.9v-18.187481201644612h-3.9v-18.067481201644615h3.9v-18.187481201644612h-3.9v-18.067481201644615h3.9v-18.187481201644612h-3.9v-18.067481201644615h3.9v-18.187481201644612h-3.9v-18.067481201644615h3.9v-18.187481201644612h-3.9v-18.067481201644615h3.9v-18.187481201644612h-3.9v-18.067481201644615h3.9v-18.187481201644612Z"></path><path d="M68.67755223725408 1v18.127481201644613h-3.9v18.187481201644612h3.9v18.067481201644615h-3.9v18.187481201644612h3.9v18.067481201644615h-3.9v18.187481201644612h3.9v18.067481201644615h-3.9v18.187481201644612h3.9v18.067481201644615h-3.9v18.187481201644612h3.9v18.067481201644615h-3.9v18.187481201644612h3.9v18.067481201644615h-3.9v18.187481201644612h3.9v18.067481201644615v0.06h55.03755223725407v-18.127481201644613h3.9v-18.187481201644612h-3.9v-18.067481201644615h3.9v-18.187481201644612h-3.9v-18.067481201644615h3.9v-18.187481201644612h-3.9v-18.067481201644615h3.9v-18.187481201644612h-3.9v-18.067481201644615h3.9v-18.187481201644612h-3.9v-18.067481201644615h3.9v-18.187481201644612h-3.9v-18.067481201644615h3.9v-18.187481201644612h-3.9v-18.067481201644615v-0.06Z"></path><path d="M128.55510447450814 1v18.187481201644612h3.9v18.067481201644615h-3.9v18.187481201644612h3.9v18.067481201644615h-3.9v18.187481201644612h3.9v18.067481201644615h-3.9v18.187481201644612h3.9v18.067481201644615h-3.9v18.187481201644612h3.9v18.067481201644615h-3.9v18.187481201644612h3.9v18.067481201644615h-3.9v18.187481201644612h3.9v18.067481201644615h-3.9v18.187481201644612h62.837552237254066v-18.187481201644612h-3.9v-18.067481201644615h3.9v-18.187481201644612h-3.9v-18.067481201644615h3.9v-18.187481201644612h-3.9v-18.067481201644615h3.9v-18.187481201644612h-3.9v-18.067481201644615h3.9v-18.187481201644612h-3.9v-18.067481201644615h3.9v-18.187481201644612h-3.9v-18.067481201644615h3.9v-18.187481201644612h-3.9v-18.067481201644615h3.9v-18.187481201644612Z"></path><path d="M196.23265671176222 1v18.127481201644613h-3.9v18.187481201644612h3.9v18.067481201644615h-3.9v18.187481201644612h3.9v18.067481201644615h-3.9v18.187481201644612h3.9v18.067481201644615h-3.9v18.187481201644612h3.9v18.067481201644615h-3.9v18.187481201644612h3.9v18.067481201644615h-3.9v18.187481201644612h3.9v18.067481201644615h-3.9v18.187481201644612h3.9v18.067481201644615v0.06h55.03755223725407v-18.127481201644613h3.9v-18.187481201644612h-3.9v-18.067481201644615h3.9v-18.187481201644612h-3.9v-18.067481201644615h3.9v-18.187481201644612h-3.9v-18.067481201644615h3.9v-18.187481201644612h-3.9v-18.067481201644615h3.9v-18.187481201644612h-3.9v-18.067481201644615h3.9v-18.187481201644612h-3.9v-18.067481201644615h3.9v-18.187481201644612h-3.9v-18.067481201644615v-0.06Z"></path><path d="M256.1102089490163 1v19.482301287476368h3.9v19.36230128747637h-3.9v19.482301287476368h3.9v19.36230128747637h-3.9v19.482301287476368h3.9v19.36230128747637h-3.9v19.482301287476368h14.395510447450812v3.9h14.455510447450813v-3.9h14.335510447450812v3.9h14.455510447450813v-3.9h14.395510447450812v-19.482301287476368h-3.9v-19.36230128747637h3.9v-19.482301287476368h-3.9v-19.36230128747637h3.9v-19.482301287476368h-3.9v-19.36230128747637h3.9v-19.482301287476368Z"></path><path d="M260.01020894901626 141.9761090123346v19.42230128747637h-3.9v19.482301287476368h3.9v19.36230128747637h-3.9v19.482301287476368h3.9v19.36230128747637h-3.9v19.482301287476368h3.9v19.36230128747637v0.06h10.495510447450812v3.9h14.455510447450813v-3.9h14.335510447450812v3.9h14.455510447450813v-3.9h10.495510447450812v-19.42230128747637h3.9v-19.482301287476368h-3.9v-19.36230128747637h3.9v-19.482301287476368h-3.9v-19.36230128747637h3.9v-19.482301287476368h-3.9v-19.36230128747637v-0.06Z"></path><path d="M329.0877611862703 1v19.482301287476368h3.9v19.36230128747637h-3.9v19.482301287476368h3.9v19.36230128747637h-3.9v19.482301287476368h3.9v19.36230128747637h-3.9v19.482301287476368h14.395510447450812v3.9h14.455510447450813v-3.9h14.335510447450812v3.9h14.455510447450813v-3.9h14.395510447450812v-19.482301287476368h-3.9v-19.36230128747637h3.9v-19.482301287476368h-3.9v-19.36230128747637h3.9v-19.482301287476368h-3.9v-19.36230128747637h3.9v-19.482301287476368Z"></path><path d="M332.9877611862703 141.9761090123346v19.42230128747637h-3.9v19.482301287476368h3.9v19.36230128747637h-3.9v19.482301287476368h3.9v19.36230128747637h-3.9v19.482301287476368h3.9v19.36230128747637v0.06h10.495510447450812v3.9h14.455510447450813v-3.9h14.335510447450812v3.9h14.455510447450813v-3.9h10.495510447450812v-19.42230128747637h3.9v-19.482301287476368h-3.9v-19.36230128747637h3.9v-19.482301287476368h-3.9v-19.36230128747637h3.9v-19.482301287476368h-3.9v-19.36230128747637v-0.06Z"></path><path d="M402.06531342352434 1v14.455510447450813h3.9v14.335510447450812h-3.9v14.455510447450813h3.9v14.335510447450812h-3.9v14.455510447450813h14.455510447450813v-3.9h14.335510447450812v3.9h14.455510447450813v-3.9h14.335510447450812v3.9h14.455510447450813v-14.455510447450813h-3.9v-14.335510447450812h3.9v-14.455510447450813h-3.9v-14.335510447450812h3.9v-14.455510447450813h-14.455510447450813v3.9h-14.335510447450812v-3.9h-14.455510447450813v3.9h-14.335510447450812v-3.9h-14.455510447450813Z"></path><path d="M402.06531342352434 74.79755223725405v253.97020894901624h136.0161090123346v-253.97020894901624Z"></path></svg>