<?xml version='1.0' standalone='no'?><!DOCTYPE svg PUBLIC '-//W3C//DTD SVG 1.1//EN' 'http://www.w3.org/Graphics/SVG/1.1/DTD/svg11.dtd'><svg width="400mm" height="300mm" viewBox="0 0 400 300" version="1.1" xmlns="http://www.w3.org/2000/svg"><path d="M1 1v19.617860700186217h3.9v19.49786070018622h-3.9v19.617860700186217h3.9v19.49786070018622h-3.9v19.617860700186217h3.9v19.49786070018622h-3.9v19.617860700186217h3.9v19.49786070018622h-3.9v19.617860700186217h3.9v19.49786070018622h-3.9v19.617860700186217h3.9v19.49786070018622h-3.9v19.617860700186217h60.5066843871717v-19.617860700186217h-3.9v-19.49786070018622h3.9v-19.617860700186217h-3.9v-19.49786070018622h3.9v-19.617860700186217h-3.9v-19.49786070018622h3.9v-19.617860700186217h-3.9v-19.49786070018622h3.9v-19.617860700186217h-3.9v-19.49786070018622h3.9v-19.617860700186217h-3.9v-19.49786070018622h3.9v-19.617860700186217Z"></path><path d="M66.3466843871717 1v19.557860700186218h-3.9v19.617860700186217h3.9v19.49786070018622h-3.9v19.617860700186217h3.9v19.49786070018622h-3.9v19.617860700186217h3.9v19.49786070018622h-3.9v19.617860700186217h3.9v19.49786070018622h-3.9v19.617860700186217h3.9v19.49786070018622h-3.9v19.617860700186217h3.9v19.49786070018622v0.06h52.706684387171705v-19.557860700186218h3.9v-19.617860700186217h-3.9v-19.49786070018622h3.9v-19.617860700186217h-3.9v-19.49786070018622h3.9v-19.617860700186217h-3.9v-19.49786070018622h3.9v-19.617860700186217h-3.9v-19.49786070018622h3.9v-19.617860700186217h-3.9v-19.49786070018622h3.9v-19.617860700186217h-3.9v-19.49786070018622v-0.06Z"></path><path d="M123.8933687743434 1v19.617860700186217h3.9v19.49786070018622h-3.9v19.617860700186217h3.9v19.49786070018622h-3.9v19.617860700186217h3.9v19.49786070018622h-3.9v19.617860700186217h3.9v19.49786070018622h-3.9v19.617860700186217h3.9v19.49786070018622h-3.9v19.617860700186217h3.9v19.49786070018622h-3.9v19.617860700186217h60.5066843871717v-19.617860700186217h-3.9v-19.49786070018622h3.9v-19.617860700186217h-3.9v-19.49786070018622h3.9v-19.617860700186217h-3.9v-19.49786070018622h3.9v-19.617860700186217h-3.9v-19.49786070018622h3.9v-19.617860700186217h-3.9v-19.49786070018622h3.9v-19.617860700186217h-3.9v-19.49786070018622h3.9v-19.617860700186217Z"></path><path d="M189.2400531615151 1v19.557860700186218h-3.9v19.617860700186217h3.9v19.49786070018622h-3.9v19.617860700186217h3.9v19.49786070018622h-3.9v19.617860700186217h3.9v19.49786070018622h-3.9v19.617860700186217h3.9v19.49786070018622h-3.9v19.617860700186217h3.9v19.49786070018622h-3.9v19.617860700186217h3.9v19.49786070018622v0.06h52.706684387171705v-19.557860700186218h3.9v-19.617860700186217h-3.9v-19.49786070018622h3.9v-19.617860700186217h-3.9v-19.49786070018622h3.9v-19.617860700186217h-3.9v-19.49786070018622h3.9v-19.617860700186217h-3.9v-19.49786070018622h3.9v-19.617860700186217h-3.9v-19.49786070018622h3.9v-19.617860700186217h-3.9v-19.49786070018622v-0.06Z"></path><path d="M246.7867375486868 1v18.220870650172916h3.9v18.10087065017292h-3.9v18.220870650172916h3.9v18.10087065017292h-3.9v18.220870650172916h3.9v18.10087065017292h-3.9v18.220870650172916h13.929336877434341v3.9h13.989336877434342v-3.9h13.86933687743434v3.9h13.989336877434342v-3.9h13.929336877434341v-18.220870650172916h-3.9v-18.10087065017292h3.9v-18.220870650172916h-3.9v-18.10087065017292h3.9v-18.220870650172916h-3.9v-18.10087065017292h3.9v-18.220870650172916Z"></path><path d="M250.6867375486868 133.14609455121044v18.160870650172917h-3.9v18.220870650172916h3.9v18.10087065017292h-3.9v18.220870650172916h3.9v18.10087065017292h-3.9v18.220870650172916h3.9v18.10087065017292v0.06h10.029336877434341v3.9h13.989336877434342v-3.9h13.86933687743434v3.9h13.989336877434342v-3.9h10.029336877434341v-18.160870650172917h3.9v-18.220870650172916h-3.9v-18.10087065017292h3.9v-18.220870650172916h-3.9v-18.10087065017292h3.9v-18.220870650172916h-3.9v-18.10087065017292v-0.06Z"></path><path d="M317.4334219358585 1v18.220870650172916h3.9v18.10087065017292h-3.9v18.220870650172916h3.9v18.10087065017292h-3.9v18.220870650172916h3.9v18.10087065017292h-3.9v18.220870650172916h13.929336877434341v3.9h13.989336877434342v-3.9h13.86933687743434v3.9h13.989336877434342v-3.9h13.929336877434341v-18.220870650172916h-3.9v-18.10087065017292h3.9v-18.220870650172916h-3.9v-18.10087065017292h3.9v-18.220870650172916h-3.9v-18.10087065017292h3.9v-18.220870650172916Z"></path><path d="M321.3334219358585 133.14609455121044v18.160870650172917h-3.9v18.220870650172916h3.9v18.10087065017292h-3.9v18.220870650172916h3.9v18.10087065017292h-3.9v18.220870650172916h3.9v18.10087065017292v0.06h10.029336877434341v3.9h13.989336877434342v-3.9h13.86933687743434v3.9h13.989336877434342v-3.9h10.029336877434341v-18.160870650172917h3.9v-18.220870650172916h-3.9v-18.10087065017292h3.9v-18.220870650172916h-3.9v-18.10087065017292h3.9v-18.220870650172916h-3.9v-18.10087065017292v-0.06Z"></path><path d="M388.08010632303024 1v13.989336877434342h3.9v13.86933687743434h-3.9v13.989336877434342h3.9v13.86933687743434h-3.9v13.989336877434342h13.989336877434342v-3.9h13.86933687743434v3.9h13.989336877434342v-3.9h13.86933687743434v3.9h13.989336877434342v-13.989336877434342h-3.9v-13.86933687743434h3.9v-13.989336877434342h-3.9v-13.86933687743434h3.9v-13.989336877434342h-13.989336877434342v3.9h-13.86933687743434v-3.9h-13.989336877434342v3.9h-13.86933687743434v-3.9h-13.989336877434342Z"></path><path d="M388.08010632303024 72.46668438717171v244.64673754868681h127.18609455121043v-244.64673754868681Z"></path></svg>