<?xml version='1.0' standalone='no'?><!DOCTYPE svg PUBLIC '-//W3C//DTD SVG 1.1//EN' 'http://www.w3.org/Graphics/SVG/1.1/DTD/svg11.dtd'><svg width="400mm" height="300mm" viewBox="0 0 400 300" version="1.1" xmlns="http://www.w3.org/2000/svg"><path d="M1 1v18.339419470210157h3.9v18.21941947021016h-3.9v18.339419470210157h3.9v18.21941947021016h-3.9v18.339419470210157h3.9v18.21941947021016h-3.9v18.339419470210157h3.9v18.21941947021016h-3.9v18.339419470210157h3.9v18.21941947021016h-3.9v18.339419470210157h3.9v18.21941947021016h-3.9v18.339419470210157h58.274637687058004v-18.339419470210157h-3.9v-18.21941947021016h3.9v-18.339419470210157h-3.9v-18.21941947021016h3.9v-18.339419470210157h-3.9v-18.21941947021016h3.9v-18.339419470210157h-3.9v-18.21941947021016h3.9v-18.339419470210157h-3.9v-18.21941947021016h3.9v-18.339419470210157h-3.9v-18.21941947021016h3.9v-18.339419470210157Z"></path><path d="M64.114637687058 1v18.279419470210158h-3.9v18.339419470210157h3.9v18.21941947021016h-3.9v18.339419470210157h3.9v18.21941947021016h-3.9v18.339419470210157h3.9v18.21941947021016h-3.9v18.339419470210157h3.9v18.21941947021016h-3.9v18.339419470210157h3.9v18.21941947021016h-3.9v18.339419470210157h3.9v18.21941947021016v0.06h50.47463768705801v-18.279419470210158h3.9v-18.339419470210157h-3.9v-18.21941947021016h3.9v-18.339419470210157h-3.9v-18.21941947021016h3.9v-18.339419470210157h-3.9v-18.21941947021016h3.9v-18.339419470210157h-3.9v-18.21941947021016h3.9v-18.339419470210157h-3.9v-18.21941947021016h3.9v-18.339419470210157h-3.9v-18.21941947021016v-0.06Z"></path><path d="M119.429275374116 1v18.339419470210157h3.9v18.21941947021016h-3.9v18.339419470210157h3.9v18.21941947021016h-3.9v18.339419470210157h3.9v18.21941947021016h-3.9v18.339419470210157h3.9v18.21941947021016h-3.9v18.339419470210157h3.9v18.21941947021016h-3.9v18.339419470210157h3.9v18.21941947021016h-3.9v18.339419470210157h58.274637687058004v-18.339419470210157h-3.9v-18.21941947021016h3.9v-18.339419470210157h-3.9v-18.21941947021016h3.9v-18.339419470210157h-3.9v-18.21941947021016h3.9v-18.339419470210157h-3.9v-18.21941947021016h3.9v-18.339419470210157h-3.9v-18.21941947021016h3.9v-18.339419470210157h-3.9v-18.21941947021016h3.9v-18.339419470210157Z"></path><path d="M182.543913061174 1v18.279419470210158h-3.9v18.339419470210157h3.9v18.21941947021016h-3.9v18.339419470210157h3.9v18.21941947021016h-3.9v18.339419470210157h3.9v18.21941947021016h-3.9v18.339419470210157h3.9v18.21941947021016h-3.9v18.339419470210157h3.9v18.21941947021016h-3.9v18.339419470210157h3.9v18.21941947021016v0.06h50.47463768705801v-18.279419470210158h3.9v-18.339419470210157h-3.9v-18.21941947021016h3.9v-18.339419470210157h-3.9v-18.21941947021016h3.9v-18.339419470210157h-3.9v-18.21941947021016h3.9v-18.339419470210157h-3.9v-18.21941947021016h3.9v-18.339419470210157h-3.9v-18.21941947021016h3.9v-18.339419470210157h-3.9v-18.21941947021016v-0.06Z"></path><path d="M237.858550748232 1v17.03374665090943h3.9v16.91374665090943h-3.9v17.03374665090943h3.9v16.91374665090943h-3.9v17.03374665090943h3.9v16.91374665090943h-3.9v17.03374665090943h13.482927537411602v3.9h13.542927537411602v-3.9h13.422927537411601v3.9h13.542927537411602v-3.9h13.482927537411602v-17.03374665090943h-3.9v-16.91374665090943h3.9v-17.03374665090943h-3.9v-16.91374665090943h3.9v-17.03374665090943h-3.9v-16.91374665090943h3.9v-17.03374665090943Z"></path><path d="M241.758550748232 124.83622655636603v16.97374665090943h-3.9v17.03374665090943h3.9v16.91374665090943h-3.9v17.03374665090943h3.9v16.91374665090943h-3.9v17.03374665090943h3.9v16.91374665090943v0.06h9.582927537411601v3.9h13.542927537411602v-3.9h13.422927537411601v3.9h13.542927537411602v-3.9h9.582927537411601v-16.97374665090943h3.9v-17.03374665090943h-3.9v-16.91374665090943h3.9v-17.03374665090943h-3.9v-16.91374665090943h3.9v-17.03374665090943h-3.9v-16.91374665090943v-0.06Z"></path><path d="M306.27318843529 1v17.03374665090943h3.9v16.91374665090943h-3.9v17.03374665090943h3.9v16.91374665090943h-3.9v17.03374665090943h3.9v16.91374665090943h-3.9v17.03374665090943h13.482927537411602v3.9h13.542927537411602v-3.9h13.422927537411601v3.9h13.542927537411602v-3.9h13.482927537411602v-17.03374665090943h-3.9v-16.91374665090943h3.9v-17.03374665090943h-3.9v-16.91374665090943h3.9v-17.03374665090943h-3.9v-16.91374665090943h3.9v-17.03374665090943Z"></path><path d="M310.17318843529 124.83622655636603v16.97374665090943h-3.9v17.03374665090943h3.9v16.91374665090943h-3.9v17.03374665090943h3.9v16.91374665090943h-3.9v17.03374665090943h3.9v16.91374665090943v0.06h9.582927537411601v3.9h13.542927537411602v-3.9h13.422927537411601v3.9h13.542927537411602v-3.9h9.582927537411601v-16.97374665090943h3.9v-17.03374665090943h-3.9v-16.91374665090943h3.9v-17.03374665090943h-3.9v-16.91374665090943h3.9v-17.03374665090943h-3.9v-16.91374665090943v-0.06Z"></path><path d="M374.68782612234804 1v13.542927537411602h3.9v13.422927537411601h-3.9v13.542927537411602h3.9v13.422927537411601h-3.9v13.542927537411602h13.542927537411602v-3.9h13.422927537411601v3.9h13.542927537411602v-3.9h13.422927537411601v3.9h13.542927537411602v-13.542927537411602h-3.9v-13.422927537411601h3.9v-13.542927537411602h-3.9v-13.422927537411601h3.9v-13.542927537411602h-13.542927537411602v3.9h-13.422927537411601v-3.9h-13.542927537411602v3.9h-13.422927537411601v-3.9h-13.542927537411602Z"></path><path d="M374.68782612234804 70.23463768705801v235.71855074823202h118.87622655636602v-235.71855074823202Z"></path></svg>