<?xml version='1.0' standalone='no'?><!DOCTYPE svg PUBLIC '-//W3C//DTD SVG 1.1//EN' 'http://www.w3.org/Graphics/SVG/1.1/DTD/svg11.dtd'><svg width="400mm" height="300mm" viewBox="0 0 400 300" version="1.1" xmlns="http://www.w3.org/2000/svg"><path d="M1 1v18.55140584668516h3.9v18.431405846685163h-3.9v18.55140584668516h3.9v18.431405846685163h-3.9v18.55140584668516h3.9v18.431405846685163h-3.9v18.55140584668516h3.9v18.431405846685163h-3.9v18.55140584668516h3.9v18.431405846685163h-3.9v18.55140584668516h3.9v18.431405846685163h-3.9v18.55140584668516h56.137222444356695v-18.55140584668516h-3.9v-18.431405846685163h3.9v-18.55140584668516h-3.9v-18.431405846685163h3.9v-18.55140584668516h-3.9v-18.431405846685163h3.9v-18.55140584668516h-3.9v-18.431405846685163h3.9v-18.55140584668516h-3.9v-18.431405846685163h3.9v-18.55140584668516h-3.9v-18.431405846685163h3.9v-18.55140584668516Z"></path><path d="M61.97722244435669 1v18.49140584668516h-3.9v18.55140584668516h3.9v18.431405846685163h-3.9v18.55140584668516h3.9v18.431405846685163h-3.9v18.55140584668516h3.9v18.431405846685163h-3.9v18.55140584668516h3.9v18.431405846685163h-3.9v18.55140584668516h3.9v18.431405846685163h-3.9v18.55140584668516h3.9v18.431405846685163v0.06h48.3372224443567v-18.49140584668516h3.9v-18.55140584668516h-3.9v-18.431405846685163h3.9v-18.55140584668516h-3.9v-18.431405846685163h3.9v-18.55140584668516h-3.9v-18.431405846685163h3.9v-18.55140584668516h-3.9v-18.431405846685163h3.9v-18.55140584668516h-3.9v-18.431405846685163h3.9v-18.55140584668516h-3.9v-18.431405846685163v-0.06Z"></path><path d="M115.15444488871339 1v18.55140584668516h3.9v18.431405846685163h-3.9v18.55140584668516h3.9v18.431405846685163h-3.9v18.55140584668516h3.9v18.431405846685163h-3.9v18.55140584668516h3.9v18.431405846685163h-3.9v18.55140584668516h3.9v18.431405846685163h-3.9v18.55140584668516h3.9v18.431405846685163h-3.9v18.55140584668516h56.137222444356695v-18.55140584668516h-3.9v-18.431405846685163h3.9v-18.55140584668516h-3.9v-18.431405846685163h3.9v-18.55140584668516h-3.9v-18.431405846685163h3.9v-18.55140584668516h-3.9v-18.431405846685163h3.9v-18.55140584668516h-3.9v-18.431405846685163h3.9v-18.55140584668516h-3.9v-18.431405846685163h3.9v-18.55140584668516Z"></path><path d="M176.13166733307008 1v18.49140584668516h-3.9v18.55140584668516h3.9v18.431405846685163h-3.9v18.55140584668516h3.9v18.431405846685163h-3.9v18.55140584668516h3.9v18.431405846685163h-3.9v18.55140584668516h3.9v18.431405846685163h-3.9v18.55140584668516h3.9v18.431405846685163h-3.9v18.55140584668516h3.9v18.431405846685163v0.06h48.3372224443567v-18.49140584668516h3.9v-18.55140584668516h-3.9v-18.431405846685163h3.9v-18.55140584668516h-3.9v-18.431405846685163h3.9v-18.55140584668516h-3.9v-18.431405846685163h3.9v-18.55140584668516h-3.9v-18.431405846685163h3.9v-18.55140584668516h-3.9v-18.431405846685163h3.9v-18.55140584668516h-3.9v-18.431405846685163v-0.06Z"></path><path d="M229.30888977742677 1v17.23059114335051h3.9v17.11059114335051h-3.9v17.23059114335051h3.9v17.11059114335051h-3.9v17.23059114335051h3.9v17.11059114335051h-3.9v17.23059114335051h13.05544448887134v3.9h13.11544448887134v-3.9h12.995444488871339v3.9h13.11544448887134v-3.9h13.05544448887134v-17.23059114335051h-3.9v-17.11059114335051h3.9v-17.23059114335051h-3.9v-17.11059114335051h3.9v-17.23059114335051h-3.9v-17.11059114335051h3.9v-17.23059114335051Z"></path><path d="M233.20888977742678 126.21413800345357v17.17059114335051h-3.9v17.23059114335051h3.9v17.11059114335051h-3.9v17.23059114335051h3.9v17.11059114335051h-3.9v17.23059114335051h3.9v17.11059114335051v0.06h9.155444488871339v3.9h13.11544448887134v-3.9h12.995444488871339v3.9h13.11544448887134v-3.9h9.155444488871339v-17.17059114335051h3.9v-17.23059114335051h-3.9v-17.11059114335051h3.9v-17.23059114335051h-3.9v-17.11059114335051h3.9v-17.23059114335051h-3.9v-17.11059114335051v-0.06Z"></path><path d="M295.5861122217835 1v17.23059114335051h3.9v17.11059114335051h-3.9v17.23059114335051h3.9v17.11059114335051h-3.9v17.23059114335051h3.9v17.11059114335051h-3.9v17.23059114335051h13.05544448887134v3.9h13.11544448887134v-3.9h12.995444488871339v3.9h13.11544448887134v-3.9h13.05544448887134v-17.23059114335051h-3.9v-17.11059114335051h3.9v-17.23059114335051h-3.9v-17.11059114335051h3.9v-17.23059114335051h-3.9v-17.11059114335051h3.9v-17.23059114335051Z"></path><path d="M299.48611222178346 126.21413800345357v17.17059114335051h-3.9v17.23059114335051h3.9v17.11059114335051h-3.9v17.23059114335051h3.9v17.11059114335051h-3.9v17.23059114335051h3.9v17.11059114335051v0.06h9.155444488871339v3.9h13.11544448887134v-3.9h12.995444488871339v3.9h13.11544448887134v-3.9h9.155444488871339v-17.17059114335051h3.9v-17.23059114335051h-3.9v-17.11059114335051h3.9v-17.23059114335051h-3.9v-17.11059114335051h3.9v-17.23059114335051h-3.9v-17.11059114335051v-0.06Z"></path><path d="M361.8633346661402 1v13.11544448887134h3.9v12.995444488871339h-3.9v13.11544448887134h3.9v12.995444488871339h-3.9v13.11544448887134h13.11544448887134v-3.9h12.995444488871339v3.9h13.11544448887134v-3.9h12.995444488871339v3.9h13.11544448887134v-13.11544448887134h-3.9v-12.995444488871339h3.9v-13.11544448887134h-3.9v-12.995444488871339h3.9v-13.11544448887134h-13.11544448887134v3.9h-12.995444488871339v-3.9h-13.11544448887134v3.9h-12.995444488871339v-3.9h-13.11544448887134Z"></path><path d="M361.8633346661402 68.0972224443567v227.16888977742678h120.25413800345356v-227.16888977742678Z"></path></svg>