<?xml version='1.0' standalone='no'?><!DOCTYPE svg PUBLIC '-//W3C//DTD SVG 1.1//EN' 'http://www.w3.org/Graphics/SVG/1.1/DTD/svg11.dtd'><svg width="400mm" height="300mm" viewBox="0 0 400 300" version="1.1" xmlns="http://www.w3.org/2000/svg"><path d="M1 1v18.9032461805976h3.9v18.7832461805976h-3.9v18.9032461805976h3.9v18.7832461805976h-3.9v18.9032461805976h3.9v18.7832461805976h-3.9v18.9032461805976h3.9v18.7832461805976h-3.9v18.9032461805976h3.9v18.7832461805976h-3.9v18.9032461805976h54.09042659573078v-18.9032461805976h-3.9v-18.7832461805976h3.9v-18.9032461805976h-3.9v-18.7832461805976h3.9v-18.9032461805976h-3.9v-18.7832461805976h3.9v-18.9032461805976h-3.9v-18.7832461805976h3.9v-18.9032461805976h-3.9v-18.7832461805976h3.9v-18.9032461805976Z"></path><path d="M59.93042659573078 1v18.8432461805976h-3.9v18.9032461805976h3.9v18.7832461805976h-3.9v18.9032461805976h3.9v18.7832461805976h-3.9v18.9032461805976h3.9v18.7832461805976h-3.9v18.9032461805976h3.9v18.7832461805976h-3.9v18.9032461805976h3.9v18.7832461805976v0.06h46.290426595730786v-18.8432461805976h3.9v-18.9032461805976h-3.9v-18.7832461805976h3.9v-18.9032461805976h-3.9v-18.7832461805976h3.9v-18.9032461805976h-3.9v-18.7832461805976h3.9v-18.9032461805976h-3.9v-18.7832461805976h3.9v-18.9032461805976h-3.9v-18.7832461805976v-0.06Z"></path><path d="M111.06085319146156 1v18.9032461805976h3.9v18.7832461805976h-3.9v18.9032461805976h3.9v18.7832461805976h-3.9v18.9032461805976h3.9v18.7832461805976h-3.9v18.9032461805976h3.9v18.7832461805976h-3.9v18.9032461805976h3.9v18.7832461805976h-3.9v18.9032461805976h54.09042659573078v-18.9032461805976h-3.9v-18.7832461805976h3.9v-18.9032461805976h-3.9v-18.7832461805976h3.9v-18.9032461805976h-3.9v-18.7832461805976h3.9v-18.9032461805976h-3.9v-18.7832461805976h3.9v-18.9032461805976h-3.9v-18.7832461805976h3.9v-18.9032461805976Z"></path><path d="M169.99127978719235 1v18.8432461805976h-3.9v18.9032461805976h3.9v18.7832461805976h-3.9v18.9032461805976h3.9v18.7832461805976h-3.9v18.9032461805976h3.9v18.7832461805976h-3.9v18.9032461805976h3.9v18.7832461805976h-3.9v18.9032461805976h3.9v18.7832461805976v0.06h46.290426595730786v-18.8432461805976h3.9v-18.9032461805976h-3.9v-18.7832461805976h3.9v-18.9032461805976h-3.9v-18.7832461805976h3.9v-18.9032461805976h-3.9v-18.7832461805976h3.9v-18.9032461805976h-3.9v-18.7832461805976h3.9v-18.9032461805976h-3.9v-18.7832461805976v-0.06Z"></path><path d="M221.12170638292312 1v14.865407713326686h3.9v14.745407713326685h-3.9v14.865407713326686h3.9v14.745407713326685h-3.9v14.865407713326686h3.9v14.745407713326685h-3.9v14.865407713326686h12.646085319146156v3.9h12.706085319146156v-3.9h12.586085319146155v3.9h12.706085319146156v-3.9h12.646085319146156v-14.865407713326686h-3.9v-14.745407713326685h3.9v-14.865407713326686h-3.9v-14.745407713326685h3.9v-14.865407713326686h-3.9v-14.745407713326685h3.9v-14.865407713326686Z"></path><path d="M225.02170638292313 109.6578539932868v14.805407713326685h-3.9v14.865407713326686h3.9v14.745407713326685h-3.9v14.865407713326686h3.9v14.745407713326685h-3.9v14.865407713326686h3.9v14.745407713326685v0.06h8.746085319146156v3.9h12.706085319146156v-3.9h12.586085319146155v3.9h12.706085319146156v-3.9h8.746085319146156v-14.805407713326685h3.9v-14.865407713326686h-3.9v-14.745407713326685h3.9v-14.865407713326686h-3.9v-14.745407713326685h3.9v-14.865407713326686h-3.9v-14.745407713326685v-0.06Z"></path><path d="M285.3521329786539 1v14.865407713326686h3.9v14.745407713326685h-3.9v14.865407713326686h3.9v14.745407713326685h-3.9v14.865407713326686h3.9v14.745407713326685h-3.9v14.865407713326686h12.646085319146156v3.9h12.706085319146156v-3.9h12.586085319146155v3.9h12.706085319146156v-3.9h12.646085319146156v-14.865407713326686h-3.9v-14.745407713326685h3.9v-14.865407713326686h-3.9v-14.745407713326685h3.9v-14.865407713326686h-3.9v-14.745407713326685h3.9v-14.865407713326686Z"></path><path d="M289.2521329786539 109.6578539932868v14.805407713326685h-3.9v14.865407713326686h3.9v14.745407713326685h-3.9v14.865407713326686h3.9v14.745407713326685h-3.9v14.865407713326686h3.9v14.745407713326685v0.06h8.746085319146156v3.9h12.706085319146156v-3.9h12.586085319146155v3.9h12.706085319146156v-3.9h8.746085319146156v-14.805407713326685h3.9v-14.865407713326686h-3.9v-14.745407713326685h3.9v-14.865407713326686h-3.9v-14.745407713326685h3.9v-14.865407713326686h-3.9v-14.745407713326685v-0.06Z"></path><path d="M349.5825595743847 1v12.706085319146156h3.9v12.586085319146155h-3.9v12.706085319146156h3.9v12.586085319146155h-3.9v12.706085319146156h12.706085319146156v-3.9h12.586085319146155v3.9h12.706085319146156v-3.9h12.586085319146155v3.9h12.706085319146156v-12.706085319146156h-3.9v-12.586085319146155h3.9v-12.706085319146156h-3.9v-12.586085319146155h3.9v-12.706085319146156h-12.706085319146156v3.9h-12.586085319146155v-3.9h-12.706085319146156v3.9h-12.586085319146155v-3.9h-12.706085319146156Z"></path><path d="M349.5825595743847 66.05042659573078v218.9817063829231h103.6978539932868v-218.9817063829231Z"></path></svg>