<?xml version='1.0' standalone='no'?><!DOCTYPE svg PUBLIC '-//W3C//DTD SVG 1.1//EN' 'http://www.w3.org/Graphics/SVG/1.1/DTD/svg11.dtd'><svg width="400mm" height="300mm" viewBox="0 0 400 300" version="1.1" xmlns="http://www.w3.org/2000/svg"><path d="M1 1v17.644371905284252h3.9v17.524371905284255h-3.9v17.644371905284252h3.9v17.524371905284255h-3.9v17.644371905284252h3.9v17.524371905284255h-3.9v17.644371905284252h3.9v17.524371905284255h-3.9v17.644371905284252h3.9v17.524371905284255h-3.9v17.644371905284252h52.13040817616639v-17.644371905284252h-3.9v-17.524371905284255h3.9v-17.644371905284252h-3.9v-17.524371905284255h3.9v-17.644371905284252h-3.9v-17.524371905284255h3.9v-17.644371905284252h-3.9v-17.524371905284255h3.9v-17.644371905284252h-3.9v-17.524371905284255h3.9v-17.644371905284252Z"></path><path d="M57.97040817616639 1v17.584371905284254h-3.9v17.644371905284252h3.9v17.524371905284255h-3.9v17.644371905284252h3.9v17.524371905284255h-3.9v17.644371905284252h3.9v17.524371905284255h-3.9v17.644371905284252h3.9v17.524371905284255h-3.9v17.644371905284252h3.9v17.524371905284255v0.06h44.330408176166394v-17.584371905284254h3.9v-17.644371905284252h-3.9v-17.524371905284255h3.9v-17.644371905284252h-3.9v-17.524371905284255h3.9v-17.644371905284252h-3.9v-17.524371905284255h3.9v-17.644371905284252h-3.9v-17.524371905284255h3.9v-17.644371905284252h-3.9v-17.524371905284255v-0.06Z"></path><path d="M107.14081635233278 1v17.644371905284252h3.9v17.524371905284255h-3.9v17.644371905284252h3.9v17.524371905284255h-3.9v17.644371905284252h3.9v17.524371905284255h-3.9v17.644371905284252h3.9v17.524371905284255h-3.9v17.644371905284252h3.9v17.524371905284255h-3.9v17.644371905284252h52.13040817616639v-17.644371905284252h-3.9v-17.524371905284255h3.9v-17.644371905284252h-3.9v-17.524371905284255h3.9v-17.644371905284252h-3.9v-17.524371905284255h3.9v-17.644371905284252h-3.9v-17.524371905284255h3.9v-17.644371905284252h-3.9v-17.524371905284255h3.9v-17.644371905284252Z"></path><path d="M164.11122452849918 1v17.584371905284254h-3.9v17.644371905284252h3.9v17.524371905284255h-3.9v17.644371905284252h3.9v17.524371905284255h-3.9v17.644371905284252h3.9v17.524371905284255h-3.9v17.644371905284252h3.9v17.524371905284255h-3.9v17.644371905284252h3.9v17.524371905284255v0.06h44.330408176166394v-17.584371905284254h3.9v-17.644371905284252h-3.9v-17.524371905284255h3.9v-17.644371905284252h-3.9v-17.524371905284255h3.9v-17.644371905284252h-3.9v-17.524371905284255h3.9v-17.644371905284252h-3.9v-17.524371905284255h3.9v-17.644371905284252h-3.9v-17.524371905284255v-0.06Z"></path><path d="M213.28163270466555 1v19.402809095812675h3.9v19.282809095812677h-3.9v19.402809095812675h3.9v19.282809095812677h-3.9v19.402809095812675h12.254081635233277v3.9h12.314081635233277v-3.9h12.194081635233276v3.9h12.314081635233277v-3.9h12.254081635233277v-19.402809095812675h-3.9v-19.282809095812677h3.9v-19.402809095812675h-3.9v-19.282809095812677h3.9v-19.402809095812675Z"></path><path d="M217.18163270466556 102.7340454790634v19.342809095812676h-3.9v19.402809095812675h3.9v19.282809095812677h-3.9v19.402809095812675h3.9v19.282809095812677v0.06h8.354081635233277v3.9h12.314081635233277v-3.9h12.194081635233276v3.9h12.314081635233277v-3.9h8.354081635233277v-19.342809095812676h3.9v-19.402809095812675h-3.9v-19.282809095812677h3.9v-19.402809095812675h-3.9v-19.282809095812677v-0.06Z"></path><path d="M275.55204088083195 1v19.402809095812675h3.9v19.282809095812677h-3.9v19.402809095812675h3.9v19.282809095812677h-3.9v19.402809095812675h12.254081635233277v3.9h12.314081635233277v-3.9h12.194081635233276v3.9h12.314081635233277v-3.9h12.254081635233277v-19.402809095812675h-3.9v-19.282809095812677h3.9v-19.402809095812675h-3.9v-19.282809095812677h3.9v-19.402809095812675Z"></path><path d="M279.45204088083193 102.7340454790634v19.342809095812676h-3.9v19.402809095812675h3.9v19.282809095812677h-3.9v19.402809095812675h3.9v19.282809095812677v0.06h8.354081635233277v3.9h12.314081635233277v-3.9h12.194081635233276v3.9h12.314081635233277v-3.9h8.354081635233277v-19.342809095812676h3.9v-19.402809095812675h-3.9v-19.282809095812677h3.9v-19.402809095812675h-3.9v-19.282809095812677v-0.06Z"></path><path d="M337.8224490569983 1v12.314081635233277h3.9v12.194081635233276h-3.9v12.314081635233277h3.9v12.194081635233276h-3.9v12.314081635233277h12.314081635233277v-3.9h12.194081635233276v3.9h12.314081635233277v-3.9h12.194081635233276v3.9h12.314081635233277v-12.314081635233277h-3.9v-12.194081635233276h3.9v-12.314081635233277h-3.9v-12.194081635233276h3.9v-12.314081635233277h-12.314081635233277v3.9h-12.194081635233276v-3.9h-12.314081635233277v3.9h-12.194081635233276v-3.9h-12.314081635233277Z"></path><path d="M337.8224490569983 64.09040817616639v211.14163270466554h96.77404547906339v-211.14163270466554Z"></path></svg>