<?xml version='1.0' standalone='no'?><!DOCTYPE svg PUBLIC '-//W3C//DTD SVG 1.1//EN' 'http://www.w3.org/Graphics/SVG/1.1/DTD/svg11.dtd'><svg width="400mm" height="300mm" viewBox="0 0 400 300" version="1.1" xmlns="http://www.w3.org/2000/svg"><path d="M1 1v16.459924330385636h3.9v16.33992433038564h-3.9v16.459924330385636h3.9v16.33992433038564h-3.9v16.459924330385636h3.9v16.33992433038564h-3.9v16.459924330385636h3.9v16.33992433038564h-3.9v16.459924330385636h3.9v16.33992433038564h-3.9v16.459924330385636h50.25348810736189v-16.459924330385636h-3.9v-16.33992433038564h3.9v-16.459924330385636h-3.9v-16.33992433038564h3.9v-16.459924330385636h-3.9v-16.33992433038564h3.9v-16.459924330385636h-3.9v-16.33992433038564h3.9v-16.459924330385636h-3.9v-16.33992433038564h3.9v-16.459924330385636Z"></path><path d="M56.093488107361885 1v16.399924330385637h-3.9v16.459924330385636h3.9v16.33992433038564h-3.9v16.459924330385636h3.9v16.33992433038564h-3.9v16.459924330385636h3.9v16.33992433038564h-3.9v16.459924330385636h3.9v16.33992433038564h-3.9v16.459924330385636h3.9v16.33992433038564v0.06h42.45348810736189v-16.399924330385637h3.9v-16.459924330385636h-3.9v-16.33992433038564h3.9v-16.459924330385636h-3.9v-16.33992433038564h3.9v-16.459924330385636h-3.9v-16.33992433038564h3.9v-16.459924330385636h-3.9v-16.33992433038564h3.9v-16.459924330385636h-3.9v-16.33992433038564v-0.06Z"></path><path d="M103.38697621472377 1v16.459924330385636h3.9v16.33992433038564h-3.9v16.459924330385636h3.9v16.33992433038564h-3.9v16.459924330385636h3.9v16.33992433038564h-3.9v16.459924330385636h3.9v16.33992433038564h-3.9v16.459924330385636h3.9v16.33992433038564h-3.9v16.459924330385636h50.25348810736189v-16.459924330385636h-3.9v-16.33992433038564h3.9v-16.459924330385636h-3.9v-16.33992433038564h3.9v-16.459924330385636h-3.9v-16.33992433038564h3.9v-16.459924330385636h-3.9v-16.33992433038564h3.9v-16.459924330385636h-3.9v-16.33992433038564h3.9v-16.459924330385636Z"></path><path d="M158.48046432208568 1v16.399924330385637h-3.9v16.459924330385636h3.9v16.33992433038564h-3.9v16.459924330385636h3.9v16.33992433038564h-3.9v16.459924330385636h3.9v16.33992433038564h-3.9v16.459924330385636h3.9v16.33992433038564h-3.9v16.459924330385636h3.9v16.33992433038564v0.06h42.45348810736189v-16.399924330385637h3.9v-16.459924330385636h-3.9v-16.33992433038564h3.9v-16.459924330385636h-3.9v-16.33992433038564h3.9v-16.459924330385636h-3.9v-16.33992433038564h3.9v-16.459924330385636h-3.9v-16.33992433038564h3.9v-16.459924330385636h-3.9v-16.33992433038564v-0.06Z"></path><path d="M205.77395242944755 1v18.0999167634242h3.9v17.979916763424203h-3.9v18.0999167634242h3.9v17.979916763424203h-3.9v18.0999167634242h19.79782936912063v3.9h19.85782936912063v-3.9h19.79782936912063v-18.0999167634242h-3.9v-17.979916763424203h3.9v-18.0999167634242h-3.9v-17.979916763424203h3.9v-18.0999167634242Z"></path><path d="M209.67395242944755 96.21958381712102v18.039916763424202h-3.9v18.0999167634242h3.9v17.979916763424203h-3.9v18.0999167634242h3.9v17.979916763424203v0.06h15.897829369120632v3.9h19.85782936912063v-3.9h15.897829369120632v-18.039916763424202h3.9v-18.0999167634242h-3.9v-17.979916763424203h3.9v-18.0999167634242h-3.9v-17.979916763424203v-0.06Z"></path><path d="M266.1674405368094 1v18.0999167634242h3.9v17.979916763424203h-3.9v18.0999167634242h3.9v17.979916763424203h-3.9v18.0999167634242h19.79782936912063v3.9h19.85782936912063v-3.9h19.79782936912063v-18.0999167634242h-3.9v-17.979916763424203h3.9v-18.0999167634242h-3.9v-17.979916763424203h3.9v-18.0999167634242Z"></path><path d="M270.0674405368094 96.21958381712102v18.039916763424202h-3.9v18.0999167634242h3.9v17.979916763424203h-3.9v18.0999167634242h3.9v17.979916763424203v0.06h15.897829369120632v3.9h19.85782936912063v-3.9h15.897829369120632v-18.039916763424202h3.9v-18.0999167634242h-3.9v-17.979916763424203h3.9v-18.0999167634242h-3.9v-17.979916763424203v-0.06Z"></path><path d="M326.5609286441713 1v19.85782936912063h3.9v19.737829369120632h-3.9v19.85782936912063h19.85782936912063v-3.9h19.737829369120632v3.9h19.85782936912063v-19.85782936912063h-3.9v-19.737829369120632h3.9v-19.85782936912063h-19.85782936912063v3.9h-19.737829369120632v-3.9h-19.85782936912063Z"></path><path d="M326.5609286441713 62.21348810736189v203.63395242944756h90.25958381712101v-203.63395242944756Z"></path></svg>