<?xml version='1.0' standalone='no'?><!DOCTYPE svg PUBLIC '-//W3C//DTD SVG 1.1//EN' 'http://www.w3.org/Graphics/SVG/1.1/DTD/svg11.dtd'><svg width="400mm" height="300mm" viewBox="0 0 400 300" version="1.1" xmlns="http://www.w3.org/2000/svg"><path d="M1 1v16.67290106068192h3.9v16.552901060681922h-3.9v16.67290106068192h3.9v16.552901060681922h-3.9v16.67290106068192h3.9v16.552901060681922h-3.9v16.67290106068192h3.9v16.552901060681922h-3.9v16.67290106068192h3.9v16.552901060681922h-3.9v16.67290106068192h48.45614329186571v-16.67290106068192h-3.9v-16.552901060681922h3.9v-16.67290106068192h-3.9v-16.552901060681922h3.9v-16.67290106068192h-3.9v-16.552901060681922h3.9v-16.67290106068192h-3.9v-16.552901060681922h3.9v-16.67290106068192h-3.9v-16.552901060681922h3.9v-16.67290106068192Z"></path><path d="M54.296143291865704 1v16.61290106068192h-3.9v16.67290106068192h3.9v16.552901060681922h-3.9v16.67290106068192h3.9v16.552901060681922h-3.9v16.67290106068192h3.9v16.552901060681922h-3.9v16.67290106068192h3.9v16.552901060681922h-3.9v16.67290106068192h3.9v16.552901060681922v0.06h40.65614329186571v-16.61290106068192h3.9v-16.67290106068192h-3.9v-16.552901060681922h3.9v-16.67290106068192h-3.9v-16.552901060681922h3.9v-16.67290106068192h-3.9v-16.552901060681922h3.9v-16.67290106068192h-3.9v-16.552901060681922h3.9v-16.67290106068192h-3.9v-16.552901060681922v-0.06Z"></path><path d="M99.79228658373141 1v16.67290106068192h3.9v16.552901060681922h-3.9v16.67290106068192h3.9v16.552901060681922h-3.9v16.67290106068192h3.9v16.552901060681922h-3.9v16.67290106068192h3.9v16.552901060681922h-3.9v16.67290106068192h3.9v16.552901060681922h-3.9v16.67290106068192h48.45614329186571v-16.67290106068192h-3.9v-16.552901060681922h3.9v-16.67290106068192h-3.9v-16.552901060681922h3.9v-16.67290106068192h-3.9v-16.552901060681922h3.9v-16.67290106068192h-3.9v-16.552901060681922h3.9v-16.67290106068192h-3.9v-16.552901060681922h3.9v-16.67290106068192Z"></path><path d="M153.08842987559711 1v16.61290106068192h-3.9v16.67290106068192h3.9v16.552901060681922h-3.9v16.67290106068192h3.9v16.552901060681922h-3.9v16.67290106068192h3.9v16.552901060681922h-3.9v16.67290106068192h3.9v16.552901060681922h-3.9v16.67290106068192h3.9v16.552901060681922v0.06h40.65614329186571v-16.61290106068192h3.9v-16.67290106068192h-3.9v-16.552901060681922h3.9v-16.67290106068192h-3.9v-16.552901060681922h3.9v-16.67290106068192h-3.9v-16.552901060681922h3.9v-16.67290106068192h-3.9v-16.552901060681922h3.9v-16.67290106068192h-3.9v-16.552901060681922v-0.06Z"></path><path d="M198.58457316746282 1v18.334191166750113h3.9v18.214191166750116h-3.9v18.334191166750113h3.9v18.214191166750116h-3.9v18.334191166750113h19.1987144306219v3.9h19.2587144306219v-3.9h19.1987144306219v-18.334191166750113h-3.9v-18.214191166750116h3.9v-18.334191166750113h-3.9v-18.214191166750116h3.9v-18.334191166750113Z"></path><path d="M202.48457316746283 97.39095583375058v18.274191166750114h-3.9v18.334191166750113h3.9v18.214191166750116h-3.9v18.334191166750113h3.9v18.214191166750116v0.06h15.298714430621903v3.9h19.2587144306219v-3.9h15.298714430621903v-18.274191166750114h3.9v-18.334191166750113h-3.9v-18.214191166750116h3.9v-18.334191166750113h-3.9v-18.214191166750116v-0.06Z"></path><path d="M257.18071645932855 1v18.334191166750113h3.9v18.214191166750116h-3.9v18.334191166750113h3.9v18.214191166750116h-3.9v18.334191166750113h19.1987144306219v3.9h19.2587144306219v-3.9h19.1987144306219v-18.334191166750113h-3.9v-18.214191166750116h3.9v-18.334191166750113h-3.9v-18.214191166750116h3.9v-18.334191166750113Z"></path><path d="M261.0807164593285 97.39095583375058v18.274191166750114h-3.9v18.334191166750113h3.9v18.214191166750116h-3.9v18.334191166750113h3.9v18.214191166750116v0.06h15.298714430621903v3.9h19.2587144306219v-3.9h15.298714430621903v-18.274191166750114h3.9v-18.334191166750113h-3.9v-18.214191166750116h3.9v-18.334191166750113h-3.9v-18.214191166750116v-0.06Z"></path><path d="M315.77685975119425 1v19.2587144306219h3.9v19.138714430621903h-3.9v19.2587144306219h19.2587144306219v-3.9h19.138714430621903v3.9h19.2587144306219v-19.2587144306219h-3.9v-19.138714430621903h3.9v-19.2587144306219h-19.2587144306219v3.9h-19.138714430621903v-3.9h-19.2587144306219Z"></path><path d="M315.77685975119425 60.4161432918657v196.4445731674628h91.43095583375057v-196.4445731674628Z"></path></svg>