<?xml version='1.0' standalone='no'?><!DOCTYPE svg PUBLIC '-//W3C//DTD SVG 1.1//EN' 'http://www.w3.org/Graphics/SVG/1.1/DTD/svg11.dtd'><svg width="400mm" height="300mm" viewBox="0 0 400 300" version="1.1" xmlns="http://www.w3.org/2000/svg"><path d="M1 1v17.46104720860169h3.9v17.341047208601694h-3.9v17.46104720860169h3.9v17.341047208601694h-3.9v17.46104720860169h3.9v17.341047208601694h-3.9v17.46104720860169h3.9v17.341047208601694h-3.9v17.46104720860169h46.735v-17.46104720860169h-3.9v-17.341047208601694h3.9v-17.46104720860169h-3.9v-17.341047208601694h3.9v-17.46104720860169h-3.9v-17.341047208601694h3.9v-17.46104720860169h-3.9v-17.341047208601694h3.9v-17.46104720860169Z"></path><path d="M52.574999999999996 1v17.401047208601693h-3.9v17.46104720860169h3.9v17.341047208601694h-3.9v17.46104720860169h3.9v17.341047208601694h-3.9v17.46104720860169h3.9v17.341047208601694h-3.9v17.46104720860169h3.9v17.341047208601694v0.06h38.935v-17.401047208601693h3.9v-17.46104720860169h-3.9v-17.341047208601694h3.9v-17.46104720860169h-3.9v-17.341047208601694h3.9v-17.46104720860169h-3.9v-17.341047208601694h3.9v-17.46104720860169h-3.9v-17.341047208601694v-0.06Z"></path><path d="M96.35 1v17.46104720860169h3.9v17.341047208601694h-3.9v17.46104720860169h3.9v17.341047208601694h-3.9v17.46104720860169h3.9v17.341047208601694h-3.9v17.46104720860169h3.9v17.341047208601694h-3.9v17.46104720860169h46.735v-17.46104720860169h-3.9v-17.341047208601694h3.9v-17.46104720860169h-3.9v-17.341047208601694h3.9v-17.46104720860169h-3.9v-17.341047208601694h3.9v-17.46104720860169h-3.9v-17.341047208601694h3.9v-17.46104720860169Z"></path><path d="M147.92499999999998 1v17.401047208601693h-3.9v17.46104720860169h3.9v17.341047208601694h-3.9v17.46104720860169h3.9v17.341047208601694h-3.9v17.46104720860169h3.9v17.341047208601694h-3.9v17.46104720860169h3.9v17.341047208601694v0.06h38.935v-17.401047208601693h3.9v-17.46104720860169h-3.9v-17.341047208601694h3.9v-17.46104720860169h-3.9v-17.341047208601694h3.9v-17.46104720860169h-3.9v-17.341047208601694h3.9v-17.46104720860169h-3.9v-17.341047208601694v-0.06Z"></path><path d="M191.7 1v15.720942487741523h3.9v15.600942487741522h-3.9v15.720942487741523h3.9v15.600942487741522h-3.9v15.720942487741523h18.625v3.9h18.685v-3.9h18.625v-15.720942487741523h-3.9v-15.600942487741522h3.9v-15.720942487741523h-3.9v-15.600942487741522h3.9v-15.720942487741523Z"></path><path d="M195.6 84.32471243870762v15.660942487741522h-3.9v15.720942487741523h3.9v15.600942487741522h-3.9v15.720942487741523h3.9v15.600942487741522v0.06h14.725000000000001v3.9h18.685v-3.9h14.725000000000001v-15.660942487741522h3.9v-15.720942487741523h-3.9v-15.600942487741522h3.9v-15.720942487741523h-3.9v-15.600942487741522v-0.06Z"></path><path d="M248.575 1v15.720942487741523h3.9v15.600942487741522h-3.9v15.720942487741523h3.9v15.600942487741522h-3.9v15.720942487741523h18.625v3.9h18.685v-3.9h18.625v-15.720942487741523h-3.9v-15.600942487741522h3.9v-15.720942487741523h-3.9v-15.600942487741522h3.9v-15.720942487741523Z"></path><path d="M252.475 84.32471243870762v15.660942487741522h-3.9v15.720942487741523h3.9v15.600942487741522h-3.9v15.720942487741523h3.9v15.600942487741522v0.06h14.725000000000001v3.9h18.685v-3.9h14.725000000000001v-15.660942487741522h3.9v-15.720942487741523h-3.9v-15.600942487741522h3.9v-15.720942487741523h-3.9v-15.600942487741522v-0.06Z"></path><path d="M305.45 1v18.685h3.9v18.565h-3.9v18.685h18.685v-3.9h18.565v3.9h18.685v-18.685h-3.9v-18.565h3.9v-18.685h-18.685v3.9h-18.565v-3.9h-18.685Z"></path><path d="M305.45 58.695v189.56h78.36471243870761v-189.56Z"></path></svg>