<?xml version='1.0' standalone='no'?><!DOCTYPE svg PUBLIC '-//W3C//DTD SVG 1.1//EN' 'http://www.w3.org/Graphics/SVG/1.1/DTD/svg11.dtd'><svg width="400mm" height="300mm" viewBox="0 0 400 300" version="1.1" xmlns="http://www.w3.org/2000/svg"><path d="M1 1v16.255701593508245h3.9v16.135701593508248h-3.9v16.255701593508245h3.9v16.135701593508248h-3.9v16.255701593508245h3.9v16.135701593508248h-3.9v16.255701593508245h3.9v16.135701593508248h-3.9v16.255701593508245h45.086827537157056v-16.255701593508245h-3.9v-16.135701593508248h3.9v-16.255701593508245h-3.9v-16.135701593508248h3.9v-16.255701593508245h-3.9v-16.135701593508248h3.9v-16.255701593508245h-3.9v-16.135701593508248h3.9v-16.255701593508245Z"></path><path d="M50.92682753715705 1v16.195701593508247h-3.9v16.255701593508245h3.9v16.135701593508248h-3.9v16.255701593508245h3.9v16.135701593508248h-3.9v16.255701593508245h3.9v16.135701593508248h-3.9v16.255701593508245h3.9v16.135701593508248v0.06h37.28682753715706v-16.195701593508247h3.9v-16.255701593508245h-3.9v-16.135701593508248h3.9v-16.255701593508245h-3.9v-16.135701593508248h3.9v-16.255701593508245h-3.9v-16.135701593508248h3.9v-16.255701593508245h-3.9v-16.135701593508248v-0.06Z"></path><path d="M93.05365507431411 1v16.255701593508245h3.9v16.135701593508248h-3.9v16.255701593508245h3.9v16.135701593508248h-3.9v16.255701593508245h3.9v16.135701593508248h-3.9v16.255701593508245h3.9v16.135701593508248h-3.9v16.255701593508245h45.086827537157056v-16.255701593508245h-3.9v-16.135701593508248h3.9v-16.255701593508245h-3.9v-16.135701593508248h3.9v-16.255701593508245h-3.9v-16.135701593508248h3.9v-16.255701593508245h-3.9v-16.135701593508248h3.9v-16.255701593508245Z"></path><path d="M142.98048261147116 1v16.195701593508247h-3.9v16.255701593508245h3.9v16.135701593508248h-3.9v16.255701593508245h3.9v16.135701593508248h-3.9v16.255701593508245h3.9v16.135701593508248h-3.9v16.255701593508245h3.9v16.135701593508248v0.06h37.28682753715706v-16.195701593508247h3.9v-16.255701593508245h-3.9v-16.135701593508248h3.9v-16.255701593508245h-3.9v-16.135701593508248h3.9v-16.255701593508245h-3.9v-16.135701593508248h3.9v-16.255701593508245h-3.9v-16.135701593508248v-0.06Z"></path><path d="M185.10731014862822 1v14.636131434157422h3.9v14.51613143415742h-3.9v14.636131434157422h3.9v14.51613143415742h-3.9v14.636131434157422h18.07560917905235v3.9h18.13560917905235v-3.9h18.07560917905235v-14.636131434157422h-3.9v-14.51613143415742h3.9v-14.636131434157422h-3.9v-14.51613143415742h3.9v-14.636131434157422Z"></path><path d="M189.00731014862822 78.90065717078711v14.576131434157421h-3.9v14.636131434157422h3.9v14.51613143415742h-3.9v14.636131434157422h3.9v14.51613143415742v0.06h14.175609179052351v3.9h18.13560917905235v-3.9h14.175609179052351v-14.576131434157421h3.9v-14.636131434157422h-3.9v-14.51613143415742h3.9v-14.636131434157422h-3.9v-14.51613143415742v-0.06Z"></path><path d="M240.33413768578527 1v14.636131434157422h3.9v14.51613143415742h-3.9v14.636131434157422h3.9v14.51613143415742h-3.9v14.636131434157422h18.07560917905235v3.9h18.13560917905235v-3.9h18.07560917905235v-14.636131434157422h-3.9v-14.51613143415742h3.9v-14.636131434157422h-3.9v-14.51613143415742h3.9v-14.636131434157422Z"></path><path d="M244.23413768578527 78.90065717078711v14.576131434157421h-3.9v14.636131434157422h3.9v14.51613143415742h-3.9v14.636131434157422h3.9v14.51613143415742v0.06h14.175609179052351v3.9h18.13560917905235v-3.9h14.175609179052351v-14.576131434157421h3.9v-14.636131434157422h-3.9v-14.51613143415742h3.9v-14.636131434157422h-3.9v-14.51613143415742v-0.06Z"></path><path d="M295.5609652229423 1v18.13560917905235h3.9v18.01560917905235h-3.9v18.13560917905235h18.13560917905235v-3.9h18.01560917905235v3.9h18.13560917905235v-18.13560917905235h-3.9v-18.01560917905235h3.9v-18.13560917905235h-18.13560917905235v3.9h-18.01560917905235v-3.9h-18.13560917905235Z"></path><path d="M295.5609652229423 57.04682753715705v182.9673101486282h72.9406571707871v-182.9673101486282Z"></path></svg>