<?xml version='1.0' standalone='no'?><!DOCTYPE svg PUBLIC '-//W3C//DTD SVG 1.1//EN' 'http://www.w3.org/Graphics/SVG/1.1/DTD/svg11.dtd'><svg width="400mm" height="300mm" viewBox="0 0 400 300" version="1.1" xmlns="http://www.w3.org/2000/svg"><path d="M1 1v19.42528738320108h3.9v19.305287383201083h-3.9v19.42528738320108h3.9v19.305287383201083h-3.9v19.42528738320108h3.9v19.305287383201083h-3.9v19.42528738320108h43.50853217958159v-19.42528738320108h-3.9v-19.305287383201083h3.9v-19.42528738320108h-3.9v-19.305287383201083h3.9v-19.42528738320108h-3.9v-19.305287383201083h3.9v-19.42528738320108Z"></path><path d="M49.34853217958159 1v19.365287383201082h-3.9v19.42528738320108h3.9v19.305287383201083h-3.9v19.42528738320108h3.9v19.305287383201083h-3.9v19.42528738320108h3.9v19.305287383201083v0.06h35.708532179581596v-19.365287383201082h3.9v-19.42528738320108h-3.9v-19.305287383201083h3.9v-19.42528738320108h-3.9v-19.305287383201083h3.9v-19.42528738320108h-3.9v-19.305287383201083v-0.06Z"></path><path d="M89.89706435916318 1v19.42528738320108h3.9v19.305287383201083h-3.9v19.42528738320108h3.9v19.305287383201083h-3.9v19.42528738320108h3.9v19.305287383201083h-3.9v19.42528738320108h43.50853217958159v-19.42528738320108h-3.9v-19.305287383201083h3.9v-19.42528738320108h-3.9v-19.305287383201083h3.9v-19.42528738320108h-3.9v-19.305287383201083h3.9v-19.42528738320108Z"></path><path d="M138.24559653874476 1v19.365287383201082h-3.9v19.42528738320108h3.9v19.305287383201083h-3.9v19.42528738320108h3.9v19.305287383201083h-3.9v19.42528738320108h3.9v19.305287383201083v0.06h35.708532179581596v-19.365287383201082h3.9v-19.42528738320108h-3.9v-19.305287383201083h3.9v-19.42528738320108h-3.9v-19.305287383201083h3.9v-19.42528738320108h-3.9v-19.305287383201083v-0.06Z"></path><path d="M178.79412871832636 1v13.615701168240756h3.9v13.495701168240755h-3.9v13.615701168240756h3.9v13.495701168240755h-3.9v13.615701168240756h17.5495107265272v3.9h17.609510726527198v-3.9h17.5495107265272v-13.615701168240756h-3.9v-13.495701168240755h3.9v-13.615701168240756h-3.9v-13.495701168240755h3.9v-13.615701168240756Z"></path><path d="M182.69412871832637 73.79850584120379v13.555701168240756h-3.9v13.615701168240756h3.9v13.495701168240755h-3.9v13.615701168240756h3.9v13.495701168240755v0.06h13.6495107265272v3.9h17.609510726527198v-3.9h13.6495107265272v-13.555701168240756h3.9v-13.615701168240756h-3.9v-13.495701168240755h3.9v-13.615701168240756h-3.9v-13.495701168240755v-0.06Z"></path><path d="M232.44266089790796 1v13.615701168240756h3.9v13.495701168240755h-3.9v13.615701168240756h3.9v13.495701168240755h-3.9v13.615701168240756h17.5495107265272v3.9h17.609510726527198v-3.9h17.5495107265272v-13.615701168240756h-3.9v-13.495701168240755h3.9v-13.615701168240756h-3.9v-13.495701168240755h3.9v-13.615701168240756Z"></path><path d="M236.34266089790796 73.79850584120379v13.555701168240756h-3.9v13.615701168240756h3.9v13.495701168240755h-3.9v13.615701168240756h3.9v13.495701168240755v0.06h13.6495107265272v3.9h17.609510726527198v-3.9h13.6495107265272v-13.555701168240756h3.9v-13.615701168240756h-3.9v-13.495701168240755h3.9v-13.615701168240756h-3.9v-13.495701168240755v-0.06Z"></path><path d="M286.09119307748955 1v17.609510726527198h3.9v17.4895107265272h-3.9v17.609510726527198h17.609510726527198v-3.9h17.4895107265272v3.9h17.609510726527198v-17.609510726527198h-3.9v-17.4895107265272h3.9v-17.609510726527198h-17.609510726527198v3.9h-17.4895107265272v-3.9h-17.609510726527198Z"></path><path d="M286.09119307748955 55.468532179581594v176.65412871832638h67.83850584120378v-176.65412871832638Z"></path></svg>