<?xml version='1.0' standalone='no'?><!DOCTYPE svg PUBLIC '-//W3C//DTD SVG 1.1//EN' 'http://www.w3.org/Graphics/SVG/1.1/DTD/svg11.dtd'><svg width="400mm" height="300mm" viewBox="0 0 400 300" version="1.1" xmlns="http://www.w3.org/2000/svg"><path d="M1 1v18.054128672803444h3.9v17.934128672803446h-3.9v18.054128672803444h3.9v17.934128672803446h-3.9v18.054128672803444h3.9v17.934128672803446h-3.9v18.054128672803444h41.99715136725601v-18.054128672803444h-3.9v-17.934128672803446h3.9v-18.054128672803444h-3.9v-17.934128672803446h3.9v-18.054128672803444h-3.9v-17.934128672803446h3.9v-18.054128672803444Z"></path><path d="M47.837151367256006 1v17.994128672803445h-3.9v18.054128672803444h3.9v17.934128672803446h-3.9v18.054128672803444h3.9v17.934128672803446h-3.9v18.054128672803444h3.9v17.934128672803446v0.06h34.19715136725601v-17.994128672803445h3.9v-18.054128672803444h-3.9v-17.934128672803446h3.9v-18.054128672803444h-3.9v-17.934128672803446h3.9v-18.054128672803444h-3.9v-17.934128672803446v-0.06Z"></path><path d="M86.87430273451201 1v18.054128672803444h3.9v17.934128672803446h-3.9v18.054128672803444h3.9v17.934128672803446h-3.9v18.054128672803444h3.9v17.934128672803446h-3.9v18.054128672803444h41.99715136725601v-18.054128672803444h-3.9v-17.934128672803446h3.9v-18.054128672803444h-3.9v-17.934128672803446h3.9v-18.054128672803444h-3.9v-17.934128672803446h3.9v-18.054128672803444Z"></path><path d="M133.71145410176803 1v17.994128672803445h-3.9v18.054128672803444h3.9v17.934128672803446h-3.9v18.054128672803444h3.9v17.934128672803446h-3.9v18.054128672803444h3.9v17.934128672803446v0.06h34.19715136725601v-17.994128672803445h3.9v-18.054128672803444h-3.9v-17.934128672803446h3.9v-18.054128672803444h-3.9v-17.934128672803446h3.9v-18.054128672803444h-3.9v-17.934128672803446v-0.06Z"></path><path d="M172.74860546902403 1v12.655890070962412h3.9v12.535890070962411h-3.9v12.655890070962412h3.9v12.535890070962411h-3.9v12.655890070962412h17.04571712241867v3.9h17.105717122418667v-3.9h17.04571712241867v-12.655890070962412h-3.9v-12.535890070962411h3.9v-12.655890070962412h-3.9v-12.535890070962411h3.9v-12.655890070962412Z"></path><path d="M176.64860546902403 68.99945035481207v12.595890070962412h-3.9v12.655890070962412h3.9v12.535890070962411h-3.9v12.655890070962412h3.9v12.535890070962411v0.06h13.14571712241867v3.9h17.105717122418667v-3.9h13.14571712241867v-12.595890070962412h3.9v-12.655890070962412h-3.9v-12.535890070962411h3.9v-12.655890070962412h-3.9v-12.535890070962411v-0.06Z"></path><path d="M224.88575683628005 1v12.655890070962412h3.9v12.535890070962411h-3.9v12.655890070962412h3.9v12.535890070962411h-3.9v12.655890070962412h17.04571712241867v3.9h17.105717122418667v-3.9h17.04571712241867v-12.655890070962412h-3.9v-12.535890070962411h3.9v-12.655890070962412h-3.9v-12.535890070962411h3.9v-12.655890070962412Z"></path><path d="M228.78575683628006 68.99945035481207v12.595890070962412h-3.9v12.655890070962412h3.9v12.535890070962411h-3.9v12.655890070962412h3.9v12.535890070962411v0.06h13.14571712241867v3.9h17.105717122418667v-3.9h13.14571712241867v-12.595890070962412h3.9v-12.655890070962412h-3.9v-12.535890070962411h3.9v-12.655890070962412h-3.9v-12.535890070962411v-0.06Z"></path><path d="M277.0229082035361 1v17.105717122418667h3.9v16.98571712241867h-3.9v17.105717122418667h17.105717122418667v-3.9h16.98571712241867v3.9h17.105717122418667v-17.105717122418667h-3.9v-16.98571712241867h3.9v-17.105717122418667h-17.105717122418667v3.9h-16.98571712241867v-3.9h-17.105717122418667Z"></path><path d="M277.0229082035361 53.95715136725601v170.60860546902404h63.03945035481206v-170.60860546902404Z"></path></svg>