<?xml version='1.0' standalone='no'?><!DOCTYPE svg PUBLIC '-//W3C//DTD SVG 1.1//EN' 'http://www.w3.org/Graphics/SVG/1.1/DTD/svg11.dtd'><svg width="400mm" height="300mm" viewBox="0 0 400 300" version="1.1" xmlns="http://www.w3.org/2000/svg"><path d="M1 1v16.76450470701603h3.9v16.644504707016033h-3.9v16.76450470701603h3.9v16.644504707016033h-3.9v16.76450470701603h3.9v16.644504707016033h-3.9v16.76450470701603h40.549848142988154v-16.76450470701603h-3.9v-16.644504707016033h3.9v-16.76450470701603h-3.9v-16.644504707016033h3.9v-16.76450470701603h-3.9v-16.644504707016033h3.9v-16.76450470701603Z"></path><path d="M46.38984814298815 1v16.70450470701603h-3.9v16.76450470701603h3.9v16.644504707016033h-3.9v16.76450470701603h3.9v16.644504707016033h-3.9v16.76450470701603h3.9v16.644504707016033v0.06h32.74984814298816v-16.70450470701603h3.9v-16.76450470701603h-3.9v-16.644504707016033h3.9v-16.76450470701603h-3.9v-16.644504707016033h3.9v-16.76450470701603h-3.9v-16.644504707016033v-0.06Z"></path><path d="M83.9796962859763 1v16.76450470701603h3.9v16.644504707016033h-3.9v16.76450470701603h3.9v16.644504707016033h-3.9v16.76450470701603h3.9v16.644504707016033h-3.9v16.76450470701603h40.549848142988154v-16.76450470701603h-3.9v-16.644504707016033h3.9v-16.76450470701603h-3.9v-16.644504707016033h3.9v-16.76450470701603h-3.9v-16.644504707016033h3.9v-16.76450470701603Z"></path><path d="M129.36954442896445 1v16.70450470701603h-3.9v16.76450470701603h3.9v16.644504707016033h-3.9v16.76450470701603h3.9v16.644504707016033h-3.9v16.76450470701603h3.9v16.644504707016033v0.06h32.74984814298816v-16.70450470701603h3.9v-16.76450470701603h-3.9v-16.644504707016033h3.9v-16.76450470701603h-3.9v-16.644504707016033h3.9v-16.76450470701603h-3.9v-16.644504707016033v-0.06Z"></path><path d="M166.9593925719526 1v19.548588824852036h3.9v19.42858882485204h-3.9v19.548588824852036h16.563282714329386v3.9h16.623282714329385v-3.9h16.563282714329386v-19.548588824852036h-3.9v-19.42858882485204h3.9v-19.548588824852036Z"></path><path d="M170.8593925719526 64.48576647455612v19.488588824852037h-3.9v19.548588824852036h3.9v19.42858882485204v0.06h12.663282714329387v3.9h16.623282714329385v-3.9h12.663282714329387v-19.488588824852037h3.9v-19.548588824852036h-3.9v-19.42858882485204v-0.06Z"></path><path d="M217.64924071494076 1v19.548588824852036h3.9v19.42858882485204h-3.9v19.548588824852036h16.563282714329386v3.9h16.623282714329385v-3.9h16.563282714329386v-19.548588824852036h-3.9v-19.42858882485204h3.9v-19.548588824852036Z"></path><path d="M221.54924071494077 64.48576647455612v19.488588824852037h-3.9v19.548588824852036h3.9v19.42858882485204v0.06h12.663282714329387v3.9h16.623282714329385v-3.9h12.663282714329387v-19.488588824852037h3.9v-19.548588824852036h-3.9v-19.42858882485204v-0.06Z"></path><path d="M268.3390888579289 1v16.623282714329385h3.9v16.503282714329387h-3.9v16.623282714329385h16.623282714329385v-3.9h16.503282714329387v3.9h16.623282714329385v-16.623282714329385h-3.9v-16.503282714329387h3.9v-16.623282714329385h-16.623282714329385v3.9h-16.503282714329387v-3.9h-16.623282714329385Z"></path><path d="M268.3390888579289 52.509848142988155v164.81939257195262h58.525766474556114v-164.81939257195262Z"></path></svg>