<?xml version='1.0' standalone='no'?><!DOCTYPE svg PUBLIC '-//W3C//DTD SVG 1.1//EN' 'http://www.w3.org/Graphics/SVG/1.1/DTD/svg11.dtd'><svg width="400mm" height="300mm" viewBox="0 0 400 300" version="1.1" xmlns="http://www.w3.org/2000/svg"><path d="M1 1v17.02653213231077h3.9v16.906532132310772h-3.9v17.02653213231077h3.9v16.906532132310772h-3.9v17.02653213231077h3.9v16.906532132310772h-3.9v17.02653213231077h39.16390582726363v-17.02653213231077h-3.9v-16.906532132310772h3.9v-17.02653213231077h-3.9v-16.906532132310772h3.9v-17.02653213231077h-3.9v-16.906532132310772h3.9v-17.02653213231077Z"></path><path d="M45.00390582726363 1v16.96653213231077h-3.9v17.02653213231077h3.9v16.906532132310772h-3.9v17.02653213231077h3.9v16.906532132310772h-3.9v17.02653213231077h3.9v16.906532132310772v0.06h31.36390582726363v-16.96653213231077h3.9v-17.02653213231077h-3.9v-16.906532132310772h3.9v-17.02653213231077h-3.9v-16.906532132310772h3.9v-17.02653213231077h-3.9v-16.906532132310772v-0.06Z"></path><path d="M81.20781165452726 1v17.02653213231077h3.9v16.906532132310772h-3.9v17.02653213231077h3.9v16.906532132310772h-3.9v17.02653213231077h3.9v16.906532132310772h-3.9v17.02653213231077h39.16390582726363v-17.02653213231077h-3.9v-16.906532132310772h3.9v-17.02653213231077h-3.9v-16.906532132310772h3.9v-17.02653213231077h-3.9v-16.906532132310772h3.9v-17.02653213231077Z"></path><path d="M125.2117174817909 1v16.96653213231077h-3.9v17.02653213231077h3.9v16.906532132310772h-3.9v17.02653213231077h3.9v16.906532132310772h-3.9v17.02653213231077h3.9v16.906532132310772v0.06h31.36390582726363v-16.96653213231077h3.9v-17.02653213231077h-3.9v-16.906532132310772h3.9v-17.02653213231077h-3.9v-16.906532132310772h3.9v-17.02653213231077h-3.9v-16.906532132310772v-0.06Z"></path><path d="M161.41562330905452 1v19.8542874876959h3.9v19.7342874876959h-3.9v19.8542874876959h15.967968609087876v3.9h16.027968609087875v-3.9h15.967968609087876v-19.8542874876959h-3.9v-19.7342874876959h3.9v-19.8542874876959Z"></path><path d="M165.31562330905453 65.4028624630877v19.7942874876959h-3.9v19.8542874876959h3.9v19.7342874876959v0.06h12.067968609087876v3.9h16.027968609087875v-3.9h12.067968609087876v-19.7942874876959h3.9v-19.8542874876959h-3.9v-19.7342874876959v-0.06Z"></path><path d="M210.31952913631815 1v19.8542874876959h3.9v19.7342874876959h-3.9v19.8542874876959h15.967968609087876v3.9h16.027968609087875v-3.9h15.967968609087876v-19.8542874876959h-3.9v-19.7342874876959h3.9v-19.8542874876959Z"></path><path d="M214.21952913631816 65.4028624630877v19.7942874876959h-3.9v19.8542874876959h3.9v19.7342874876959v0.06h12.067968609087876v3.9h16.027968609087875v-3.9h12.067968609087876v-19.7942874876959h3.9v-19.8542874876959h-3.9v-19.7342874876959v-0.06Z"></path><path d="M259.2234349635818 1v16.027968609087875h3.9v15.907968609087876h-3.9v16.027968609087875h16.027968609087875v-3.9h15.907968609087876v3.9h16.027968609087875v-16.027968609087875h-3.9v-15.907968609087876h3.9v-16.027968609087875h-16.027968609087875v3.9h-15.907968609087876v-3.9h-16.027968609087875Z"></path><path d="M259.2234349635818 50.52390582726363v158.47562330905453h59.44286246308771v-158.47562330905453Z"></path></svg>