<?xml version='1.0' standalone='no'?><!DOCTYPE svg PUBLIC '-//W3C//DTD SVG 1.1//EN' 'http://www.w3.org/Graphics/SVG/1.1/DTD/svg11.dtd'><svg width="400mm" height="300mm" viewBox="0 0 400 300" version="1.1" xmlns="http://www.w3.org/2000/svg"><path d="M1 1v14.520269250483393h3.9v14.400269250483392h-3.9v14.520269250483393h3.9v14.400269250483392h-3.9v14.520269250483393h3.9v14.400269250483392h-3.9v14.520269250483393h37.836722918866855v-14.520269250483393h-3.9v-14.400269250483392h3.9v-14.520269250483393h-3.9v-14.400269250483392h3.9v-14.520269250483393h-3.9v-14.400269250483392h3.9v-14.520269250483393Z"></path><path d="M43.67672291886685 1v14.460269250483393h-3.9v14.520269250483393h3.9v14.400269250483392h-3.9v14.520269250483393h3.9v14.400269250483392h-3.9v14.520269250483393h3.9v14.400269250483392v0.06h30.03672291886685v-14.460269250483393h3.9v-14.520269250483393h-3.9v-14.400269250483392h3.9v-14.520269250483393h-3.9v-14.400269250483392h3.9v-14.520269250483393h-3.9v-14.400269250483392v-0.06Z"></path><path d="M78.5534458377337 1v14.520269250483393h3.9v14.400269250483392h-3.9v14.520269250483393h3.9v14.400269250483392h-3.9v14.520269250483393h3.9v14.400269250483392h-3.9v14.520269250483393h37.836722918866855v-14.520269250483393h-3.9v-14.400269250483392h3.9v-14.520269250483393h-3.9v-14.400269250483392h3.9v-14.520269250483393h-3.9v-14.400269250483392h3.9v-14.520269250483393Z"></path><path d="M121.23016875660056 1v14.460269250483393h-3.9v14.520269250483393h3.9v14.400269250483392h-3.9v14.520269250483393h3.9v14.400269250483392h-3.9v14.520269250483393h3.9v14.400269250483392v0.06h30.03672291886685v-14.460269250483393h3.9v-14.520269250483393h-3.9v-14.400269250483392h3.9v-14.520269250483393h-3.9v-14.400269250483392h3.9v-14.520269250483393h-3.9v-14.400269250483392v-0.06Z"></path><path d="M156.1068916754674 1v16.930314125563957h3.9v16.81031412556396h-3.9v16.930314125563957h15.658907639622283v3.9h15.718907639622284v-3.9h15.658907639622283v-16.930314125563957h-3.9v-16.81031412556396h3.9v-16.930314125563957Z"></path><path d="M160.00689167546741 56.63094237669187v16.870314125563958h-3.9v16.930314125563957h3.9v16.81031412556396v0.06h11.758907639622283v3.9h15.718907639622284v-3.9h11.758907639622283v-16.870314125563958h3.9v-16.930314125563957h-3.9v-16.81031412556396v-0.06Z"></path><path d="M204.08361459433425 1v16.930314125563957h3.9v16.81031412556396h-3.9v16.930314125563957h15.658907639622283v3.9h15.718907639622284v-3.9h15.658907639622283v-16.930314125563957h-3.9v-16.81031412556396h3.9v-16.930314125563957Z"></path><path d="M207.98361459433426 56.63094237669187v16.870314125563958h-3.9v16.930314125563957h3.9v16.81031412556396v0.06h11.758907639622283v3.9h15.718907639622284v-3.9h11.758907639622283v-16.870314125563958h3.9v-16.930314125563957h-3.9v-16.81031412556396v-0.06Z"></path><path d="M252.0603375132011 1v15.718907639622284h3.9v15.598907639622283h-3.9v15.718907639622284h15.718907639622284v-3.9h15.598907639622283v3.9h15.718907639622284v-15.718907639622284h-3.9v-15.598907639622283h3.9v-15.718907639622284h-15.718907639622284v3.9h-15.598907639622283v-3.9h-15.718907639622284Z"></path><path d="M252.0603375132011 49.79672291886685v153.9668916754674h50.670942376691876v-153.9668916754674Z"></path></svg>