<?xml version="1.0" encoding="UTF-8" standalone="no"?>
<svg
   xmlns:dc="http://purl.org/dc/elements/1.1/"
   xmlns:cc="http://creativecommons.org/ns#"
   xmlns:rdf="http://www.w3.org/1999/02/22-rdf-syntax-ns#"
   xmlns:svg="http://www.w3.org/2000/svg"
   xmlns="http://www.w3.org/2000/svg"
   xmlns:sodipodi="http://sodipodi.sourceforge.net/DTD/sodipodi-0.dtd"
   xmlns:inkscape="http://www.inkscape.org/namespaces/inkscape"
   width="400mm"
   height="300mm"
   viewBox="0 0 400 300"
   version="1.1"
   id="svg22"
   sodipodi:docname="070_closed_3.75mm.svg"
   inkscape:version="0.92.2 5c3e80d, 2017-08-06">
  <metadata
     id="metadata28">
    <rdf:RDF>
      <cc:Work
         rdf:about="">
        <dc:format>image/svg+xml</dc:format>
        <dc:type
           rdf:resource="http://purl.org/dc/dcmitype/StillImage" />
      </cc:Work>
    </rdf:RDF>
  </metadata>
  <defs
     id="defs26" />
  <sodipodi:namedview
     pagecolor="#ffffff"
     bordercolor="#666666"
     borderopacity="1"
     objecttolerance="10"
     gridtolerance="10"
     guidetolerance="10"
     inkscape:pageopacity="0"
     inkscape:pageshadow="2"
     inkscape:window-width="1333"
     inkscape:window-height="685"
     id="namedview24"
     showgrid="false"
     inkscape:zoom="1"
     inkscape:cx="69.403566"
     inkscape:cy="485.05544"
     inkscape:window-x="0"
     inkscape:window-y="0"
     inkscape:window-maximized="0"
     inkscape:current-layer="svg22" />
  <path
     d="M1 1v15.933807390914584h3.75v15.813807390914583h-3.75v15.933807390914584h3.75v15.813807390914583h-3.75v15.933807390914584h3.75v15.813807390914583h-3.75v15.933807390914584h37.53672291886686v-15.933807390914584h-3.75v-15.813807390914583h3.75v-15.933807390914584h-3.75v-15.813807390914583h3.75v-15.933807390914584h-3.75v-15.813807390914583h3.75v-15.933807390914584Z"
     id="path2" />
  <path
     d="M43.226722918866855 1v15.873807390914584h-3.75v15.933807390914584h3.75v15.813807390914583h-3.75v15.933807390914584h3.75v15.813807390914583h-3.75v15.933807390914584h3.75v15.813807390914583v0.06h30.03672291886685v-15.873807390914584h3.75v-15.933807390914584h-3.75v-15.813807390914583h3.75v-15.933807390914584h-3.75v-15.813807390914583h3.75v-15.933807390914584h-3.75v-15.813807390914583v-0.06Z"
     id="path4" />
  <path
     d="M77.95344583773371 1v15.933807390914584h3.75v15.813807390914583h-3.75v15.933807390914584h3.75v15.813807390914583h-3.75v15.933807390914584h3.75v15.813807390914583h-3.75v15.933807390914584h37.53672291886686v-15.933807390914584h-3.75v-15.813807390914583h3.75v-15.933807390914584h-3.75v-15.813807390914583h3.75v-15.933807390914584h-3.75v-15.813807390914583h3.75v-15.933807390914584Z"
     id="path6" />
  <path
     d="M120.18016875660057 1v15.873807390914584h-3.75v15.933807390914584h3.75v15.813807390914583h-3.75v15.933807390914584h3.75v15.813807390914583h-3.75v15.933807390914584h3.75v15.813807390914583v0.06h30.03672291886685v-15.873807390914584h3.75v-15.933807390914584h-3.75v-15.813807390914583h3.75v-15.933807390914584h-3.75v-15.813807390914583h3.75v-15.933807390914584h-3.75v-15.813807390914583v-0.06Z"
     id="path8" />
  <path
     d="M154.90689167546742 1v18.579441956067015h3.75v18.459441956067018h-3.75v18.579441956067015h15.325574306288951v3.75h15.385574306288952v-3.75h15.325574306288951v-18.579441956067015h-3.75v-18.459441956067018h3.75v-18.579441956067015Z"
     id="path10" />
  <path
     d="M158.65689167546742 61.42832586820104v18.519441956067016h-3.75v18.579441956067015h3.75v18.459441956067018v0.06h11.575574306288951v3.75h15.385574306288952v-3.75h11.575574306288951v-18.519441956067016h3.75v-18.579441956067015h-3.75v-18.459441956067018v-0.06Z"
     id="path12" />
  <path
     d="M201.8836145943343 1v18.579441956067015h3.75v18.459441956067018h-3.75v18.579441956067015h15.325574306288951v3.75h15.385574306288952v-3.75h15.325574306288951v-18.579441956067015h-3.75v-18.459441956067018h3.75v-18.579441956067015Z"
     id="path14" />
  <path
     d="M205.6336145943343 61.42832586820104v18.519441956067016h-3.75v18.579441956067015h3.75v18.459441956067018v0.06h11.575574306288951v3.75h15.385574306288952v-3.75h11.575574306288951v-18.519441956067016h3.75v-18.579441956067015h-3.75v-18.459441956067018v-0.06Z"
     id="path16" />
  <path
     d="M248.86033751320116 1v15.385574306288952h3.75v15.26557430628895h-3.75v15.385574306288952h15.385574306288952v-3.75h15.26557430628895v3.75h15.385574306288952v-15.385574306288952h-3.75v-15.26557430628895h3.75v-15.385574306288952h-15.385574306288952v3.75h-15.26557430628895v-3.75h-15.385574306288952Z"
     id="path18" />
  <path
     d="M248.86033751320116 48.59672291886686v151.96689167546742h55.61832586820105v-151.96689167546742Z"
     id="path20" />
  <path
     style="stroke-width:1"
     d="m 2.1807455,116.5748 v 15.93391 h 3.7501586 v 15.8135 H 2.1807455 v 15.93391 h 3.7501586 v 15.81402 H 2.1807455 v 15.9334 h 3.7501586 v 15.81402 H 2.1807455 v 15.93391 H 21.24108 39.58518 v -15.93391 h -3.749641 v -15.81402 h 3.749641 v -15.9334 h -3.749641 v -15.81402 h 3.749641 v -15.93391 h -3.749641 v -15.8135 H 39.58518 V 116.5748 h -18.3441 z"
     id="path903"
     inkscape:connector-curvature="0" />
  <path
     style="stroke-width:1"
     d="m 44.407624,116.5748 v 15.87396 h -3.750157 v 15.93339 h 3.750157 v 15.81403 h -3.750157 v 15.93391 h 3.750157 v 15.8135 h -3.750157 v 15.93392 h 3.750157 v 15.81402 0.0599 h 16.115813 13.788821 v -15.87396 h 3.749643 v -15.93392 h -3.749643 v -15.8135 h 3.749643 v -15.93391 h -3.749643 v -15.81403 h 3.749643 V 132.44872 H 74.312258 V 116.6347 116.5748 H 60.523437 Z"
     id="path915"
     inkscape:connector-curvature="0" />
  <path
     style="stroke-width:1"
     d="m 79.134186,116.5748 v 15.93391 h 3.750159 v 15.8135 h -3.750159 v 15.93391 h 3.750159 v 15.81402 h -3.750159 v 15.9334 h 3.750159 v 15.81402 h -3.750159 v 15.93391 h 16.843417 20.561017 v -15.93391 h -3.74964 v -15.81402 h 3.74964 v -15.9334 h -3.74964 v -15.81402 h 3.74964 v -15.93391 h -3.74964 v -15.8135 h 3.74964 V 116.5748 H 95.977603 Z"
     id="path911"
     inkscape:connector-curvature="0" />
  <path
     style="stroke-width:1"
     d="m 121.36107,116.5748 v 15.87396 h -3.75016 v 15.93339 h 3.75016 v 15.81403 h -3.75016 v 15.93391 h 3.75016 v 15.8135 h -3.75016 v 15.93392 h 3.75016 v 15.81402 0.0599 h 14.8332 15.07143 v -15.87396 h 3.74964 v -15.93392 h -3.74964 v -15.8135 h 3.74964 v -15.93391 h -3.74964 v -15.81403 h 3.74964 v -15.93339 h -3.74964 v -15.81402 -0.0599 h -15.07143 z"
     id="path907"
     inkscape:connector-curvature="0" />
</svg>
