<?xml version='1.0' standalone='no'?><!DOCTYPE svg PUBLIC '-//W3C//DTD SVG 1.1//EN' 'http://www.w3.org/Graphics/SVG/1.1/DTD/svg11.dtd'><svg width="400mm" height="300mm" viewBox="0 0 400 300" version="1.1" xmlns="http://www.w3.org/2000/svg"><path d="M1 1v18.961648175631378h3.9v18.84164817563138h-3.9v18.961648175631378h3.9v18.84164817563138h-3.9v18.961648175631378h36.56580821169902v-18.961648175631378h-3.9v-18.84164817563138h3.9v-18.961648175631378h-3.9v-18.84164817563138h3.9v-18.961648175631378Z"></path><path d="M42.40580821169902 1v18.90164817563138h-3.9v18.961648175631378h3.9v18.84164817563138h-3.9v18.961648175631378h3.9v18.84164817563138v0.06h28.765808211699017v-18.90164817563138h3.9v-18.961648175631378h-3.9v-18.84164817563138h3.9v-18.961648175631378h-3.9v-18.84164817563138v-0.06Z"></path><path d="M76.01161642339804 1v18.961648175631378h3.9v18.84164817563138h-3.9v18.961648175631378h3.9v18.84164817563138h-3.9v18.961648175631378h36.56580821169902v-18.961648175631378h-3.9v-18.84164817563138h3.9v-18.961648175631378h-3.9v-18.84164817563138h3.9v-18.961648175631378Z"></path><path d="M117.41742463509706 1v18.90164817563138h-3.9v18.961648175631378h3.9v18.84164817563138h-3.9v18.961648175631378h3.9v18.84164817563138v0.06h28.765808211699017v-18.90164817563138h3.9v-18.961648175631378h-3.9v-18.84164817563138h3.9v-18.961648175631378h-3.9v-18.84164817563138v-0.06Z"></path><path d="M151.02323284679608 1v15.811373479692817h3.9v15.691373479692816h-3.9v15.811373479692817h15.235269403899672v3.9h15.295269403899672v-3.9h15.235269403899672v-15.811373479692817h-3.9v-15.691373479692816h3.9v-15.811373479692817Z"></path><path d="M154.92323284679608 53.274120439078445v15.751373479692816h-3.9v15.811373479692817h3.9v15.691373479692816v0.06h11.335269403899671v3.9h15.295269403899672v-3.9h11.335269403899671v-15.751373479692816h3.9v-15.811373479692817h-3.9v-15.691373479692816v-0.06Z"></path><path d="M197.72904105849508 1v15.811373479692817h3.9v15.691373479692816h-3.9v15.811373479692817h15.235269403899672v3.9h15.295269403899672v-3.9h15.235269403899672v-15.811373479692817h-3.9v-15.691373479692816h3.9v-15.811373479692817Z"></path><path d="M201.6290410584951 53.274120439078445v15.751373479692816h-3.9v15.811373479692817h3.9v15.691373479692816v0.06h11.335269403899671v3.9h15.295269403899672v-3.9h11.335269403899671v-15.751373479692816h3.9v-15.811373479692817h-3.9v-15.691373479692816v-0.06Z"></path><path d="M244.4348492701941 1v15.295269403899672h3.9v15.175269403899671h-3.9v15.295269403899672h15.295269403899672v-3.9h15.175269403899671v3.9h15.295269403899672v-15.295269403899672h-3.9v-15.175269403899671h3.9v-15.295269403899672h-15.295269403899672v3.9h-15.175269403899671v-3.9h-15.295269403899672Z"></path><path d="M244.4348492701941 48.525808211699015v148.88323284679606h47.31412043907845v-148.88323284679606Z"></path></svg>