<?xml version='1.0' standalone='no'?><!DOCTYPE svg PUBLIC '-//W3C//DTD SVG 1.1//EN' 'http://www.w3.org/Graphics/SVG/1.1/DTD/svg11.dtd'><svg width="400mm" height="300mm" viewBox="0 0 400 300" version="1.1" xmlns="http://www.w3.org/2000/svg"><path d="M1 1v17.701835160003h3.9v17.581835160003003h-3.9v17.701835160003h3.9v17.581835160003003h-3.9v17.701835160003h35.348776118627036v-17.701835160003h-3.9v-17.581835160003003h3.9v-17.701835160003h-3.9v-17.581835160003003h3.9v-17.701835160003Z"></path><path d="M41.18877611862703 1v17.641835160003h-3.9v17.701835160003h3.9v17.581835160003003h-3.9v17.701835160003h3.9v17.581835160003003v0.06h27.548776118627032v-17.641835160003h3.9v-17.701835160003h-3.9v-17.581835160003003h3.9v-17.701835160003h-3.9v-17.581835160003003v-0.06Z"></path><path d="M73.57755223725407 1v17.701835160003h3.9v17.581835160003003h-3.9v17.701835160003h3.9v17.581835160003003h-3.9v17.701835160003h35.348776118627036v-17.701835160003h-3.9v-17.581835160003003h3.9v-17.701835160003h-3.9v-17.581835160003003h3.9v-17.701835160003Z"></path><path d="M113.76632835588111 1v17.641835160003h-3.9v17.701835160003h3.9v17.581835160003003h-3.9v17.701835160003h3.9v17.581835160003003v0.06h27.548776118627032v-17.641835160003h3.9v-17.701835160003h-3.9v-17.581835160003003h3.9v-17.701835160003h-3.9v-17.581835160003003v-0.06Z"></path><path d="M146.15510447450814 1v14.7615293000025h3.9v14.6415293000025h-3.9v14.7615293000025h14.829592039542343v3.9h14.889592039542343v-3.9h14.829592039542343v-14.7615293000025h-3.9v-14.6415293000025h3.9v-14.7615293000025Z"></path><path d="M150.05510447450814 50.1245879000075v14.7015293000025h-3.9v14.7615293000025h3.9v14.6415293000025v0.06h10.929592039542342v3.9h14.889592039542343v-3.9h10.929592039542342v-14.7015293000025h3.9v-14.7615293000025h-3.9v-14.6415293000025v-0.06Z"></path><path d="M191.64388059313518 1v14.7615293000025h3.9v14.6415293000025h-3.9v14.7615293000025h14.829592039542343v3.9h14.889592039542343v-3.9h14.829592039542343v-14.7615293000025h-3.9v-14.6415293000025h3.9v-14.7615293000025Z"></path><path d="M195.54388059313519 50.1245879000075v14.7015293000025h-3.9v14.7615293000025h3.9v14.6415293000025v0.06h10.929592039542342v3.9h14.889592039542343v-3.9h10.929592039542342v-14.7015293000025h3.9v-14.7615293000025h-3.9v-14.6415293000025v-0.06Z"></path><path d="M237.1326567117622 1v14.889592039542343h3.9v14.769592039542342h-3.9v14.889592039542343h14.889592039542343v-3.9h14.769592039542342v3.9h14.889592039542343v-14.889592039542343h-3.9v-14.769592039542342h3.9v-14.889592039542343h-14.889592039542343v3.9h-14.769592039542342v-3.9h-14.889592039542343Z"></path><path d="M237.1326567117622 47.30877611862703v144.01510447450812h44.164587900007504v-144.01510447450812Z"></path></svg>