<?xml version='1.0' standalone='no'?><!DOCTYPE svg PUBLIC '-//W3C//DTD SVG 1.1//EN' 'http://www.w3.org/Graphics/SVG/1.1/DTD/svg11.dtd'><svg width="400mm" height="300mm" viewBox="0 0 400 300" version="1.1" xmlns="http://www.w3.org/2000/svg"><path d="M1 1v16.519957296211956h3.9v16.39995729621196h-3.9v16.519957296211956h3.9v16.39995729621196h-3.9v16.519957296211956h34.18334219358585v-16.519957296211956h-3.9v-16.39995729621196h3.9v-16.519957296211956h-3.9v-16.39995729621196h3.9v-16.519957296211956Z"></path><path d="M40.02334219358585 1v16.459957296211957h-3.9v16.519957296211956h3.9v16.39995729621196h-3.9v16.519957296211956h3.9v16.39995729621196v0.06h26.38334219358585v-16.459957296211957h3.9v-16.519957296211956h-3.9v-16.39995729621196h3.9v-16.519957296211956h-3.9v-16.39995729621196v-0.06Z"></path><path d="M71.2466843871717 1v16.519957296211956h3.9v16.39995729621196h-3.9v16.519957296211956h3.9v16.39995729621196h-3.9v16.519957296211956h34.18334219358585v-16.519957296211956h-3.9v-16.39995729621196h3.9v-16.519957296211956h-3.9v-16.39995729621196h3.9v-16.519957296211956Z"></path><path d="M110.27002658075756 1v16.459957296211957h-3.9v16.519957296211956h3.9v16.39995729621196h-3.9v16.519957296211956h3.9v16.39995729621196v0.06h26.38334219358585v-16.459957296211957h3.9v-16.519957296211956h-3.9v-16.39995729621196h3.9v-16.519957296211956h-3.9v-16.39995729621196v-0.06Z"></path><path d="M141.4933687743434 1v13.776631080176632h3.9v13.65663108017663h-3.9v13.776631080176632h14.441114064528614v3.9h14.501114064528615v-3.9h14.441114064528614v-13.776631080176632h-3.9v-13.65663108017663h3.9v-13.776631080176632Z"></path><path d="M145.3933687743434 47.16989324052989v13.716631080176631h-3.9v13.776631080176632h3.9v13.65663108017663v0.06h10.541114064528614v3.9h14.501114064528615v-3.9h10.541114064528614v-13.716631080176631h3.9v-13.776631080176632h-3.9v-13.65663108017663v-0.06Z"></path><path d="M185.81671096792923 1v13.776631080176632h3.9v13.65663108017663h-3.9v13.776631080176632h14.441114064528614v3.9h14.501114064528615v-3.9h14.441114064528614v-13.776631080176632h-3.9v-13.65663108017663h3.9v-13.776631080176632Z"></path><path d="M189.71671096792923 47.16989324052989v13.716631080176631h-3.9v13.776631080176632h3.9v13.65663108017663v0.06h10.541114064528614v3.9h14.501114064528615v-3.9h10.541114064528614v-13.716631080176631h3.9v-13.776631080176632h-3.9v-13.65663108017663v-0.06Z"></path><path d="M230.14005316151508 1v14.501114064528615h3.9v14.381114064528614h-3.9v14.501114064528615h14.501114064528615v-3.9h14.381114064528614v3.9h14.501114064528615v-14.501114064528615h-3.9v-14.381114064528614h3.9v-14.501114064528615h-14.501114064528615v3.9h-14.381114064528614v-3.9h-14.501114064528615Z"></path><path d="M230.14005316151508 46.143342193585845v139.35336877434338h41.209893240529894v-139.35336877434338Z"></path></svg>