<?xml version='1.0' standalone='no'?><!DOCTYPE svg PUBLIC '-//W3C//DTD SVG 1.1//EN' 'http://www.w3.org/Graphics/SVG/1.1/DTD/svg11.dtd'><svg width="400mm" height="300mm" viewBox="0 0 400 300" version="1.1" xmlns="http://www.w3.org/2000/svg"><path d="M1 1v15.411326509043635h3.9v15.291326509043634h-3.9v15.411326509043635h3.9v15.291326509043634h-3.9v15.411326509043635h33.067318843529v-15.411326509043635h-3.9v-15.291326509043634h3.9v-15.411326509043635h-3.9v-15.291326509043634h3.9v-15.411326509043635Z"></path><path d="M38.907318843529 1v15.351326509043634h-3.9v15.411326509043635h3.9v15.291326509043634h-3.9v15.411326509043635h3.9v15.291326509043634v0.06h25.267318843529v-15.351326509043634h3.9v-15.411326509043635h-3.9v-15.291326509043634h3.9v-15.411326509043635h-3.9v-15.291326509043634v-0.06Z"></path><path d="M69.014637687058 1v15.411326509043635h3.9v15.291326509043634h-3.9v15.411326509043635h3.9v15.291326509043634h-3.9v15.411326509043635h33.067318843529v-15.411326509043635h-3.9v-15.291326509043634h3.9v-15.411326509043635h-3.9v-15.291326509043634h3.9v-15.411326509043635Z"></path><path d="M106.92195653058701 1v15.351326509043634h-3.9v15.411326509043635h3.9v15.291326509043634h-3.9v15.411326509043635h3.9v15.291326509043634v0.06h25.267318843529v-15.351326509043634h3.9v-15.411326509043635h-3.9v-15.291326509043634h3.9v-15.411326509043635h-3.9v-15.291326509043634v-0.06Z"></path><path d="M137.029275374116 1v12.852772090869696h3.9v12.732772090869695h-3.9v12.852772090869696h14.069106281176332v3.9h14.129106281176332v-3.9h14.069106281176332v-12.852772090869696h-3.9v-12.732772090869695h3.9v-12.852772090869696Z"></path><path d="M140.929275374116 44.39831627260908v12.792772090869695h-3.9v12.852772090869696h3.9v12.732772090869695v0.06h10.169106281176331v3.9h14.129106281176332v-3.9h10.169106281176331v-12.792772090869695h3.9v-12.852772090869696h-3.9v-12.732772090869695v-0.06Z"></path><path d="M180.236594217645 1v12.852772090869696h3.9v12.732772090869695h-3.9v12.852772090869696h14.069106281176332v3.9h14.129106281176332v-3.9h14.069106281176332v-12.852772090869696h-3.9v-12.732772090869695h3.9v-12.852772090869696Z"></path><path d="M184.136594217645 44.39831627260908v12.792772090869695h-3.9v12.852772090869696h3.9v12.732772090869695v0.06h10.169106281176331v3.9h14.129106281176332v-3.9h10.169106281176331v-12.792772090869695h3.9v-12.852772090869696h-3.9v-12.732772090869695v-0.06Z"></path><path d="M223.443913061174 1v14.129106281176332h3.9v14.009106281176331h-3.9v14.129106281176332h14.129106281176332v-3.9h14.009106281176331v3.9h14.129106281176332v-14.129106281176332h-3.9v-14.009106281176331h3.9v-14.129106281176332h-14.129106281176332v3.9h-14.009106281176331v-3.9h-14.129106281176332Z"></path><path d="M223.443913061174 45.027318843528995v134.88927537411598h38.438316272609086v-134.88927537411598Z"></path></svg>