<?xml version="1.0" encoding="UTF-8" standalone="no"?>
<svg
   xmlns:dc="http://purl.org/dc/elements/1.1/"
   xmlns:cc="http://creativecommons.org/ns#"
   xmlns:rdf="http://www.w3.org/1999/02/22-rdf-syntax-ns#"
   xmlns:svg="http://www.w3.org/2000/svg"
   xmlns="http://www.w3.org/2000/svg"
   xmlns:sodipodi="http://sodipodi.sourceforge.net/DTD/sodipodi-0.dtd"
   xmlns:inkscape="http://www.inkscape.org/namespaces/inkscape"
   width="400mm"
   height="300mm"
   viewBox="0 0 400 300"
   version="1.1"
   id="svg22"
   sodipodi:docname="075_closed_3.75mm.svg"
   inkscape:version="0.92.2 5c3e80d, 2017-08-06">
  <metadata
     id="metadata28">
    <rdf:RDF>
      <cc:Work
         rdf:about="">
        <dc:format>image/svg+xml</dc:format>
        <dc:type
           rdf:resource="http://purl.org/dc/dcmitype/StillImage" />
      </cc:Work>
    </rdf:RDF>
  </metadata>
  <defs
     id="defs26" />
  <sodipodi:namedview
     pagecolor="#ffffff"
     bordercolor="#666666"
     borderopacity="1"
     objecttolerance="10"
     gridtolerance="10"
     guidetolerance="10"
     inkscape:pageopacity="0"
     inkscape:pageshadow="2"
     inkscape:window-width="1256"
     inkscape:window-height="653"
     id="namedview24"
     showgrid="false"
     inkscape:snap-bbox="true"
     inkscape:bbox-nodes="true"
     inkscape:zoom="1"
     inkscape:cx="355.90551"
     inkscape:cy="716.55407"
     inkscape:window-x="28"
     inkscape:window-y="18"
     inkscape:window-maximized="0"
     inkscape:current-layer="svg22" />
  <path
     d="M1 1v15.861595679915338h3.75v15.741595679915337h-3.75v15.861595679915338h3.75v15.741595679915337h-3.75v15.861595679915338h31.698611222178346v-15.861595679915338h-3.75v-15.741595679915337h3.75v-15.861595679915338h-3.75v-15.741595679915337h3.75v-15.861595679915338Z"
     id="path2" />
  <path
     d="M37.38861122217835 1v15.801595679915337h-3.75v15.861595679915338h3.75v15.741595679915337h-3.75v15.861595679915338h3.75v15.741595679915337v0.06h24.198611222178346v-15.801595679915337h3.75v-15.861595679915338h-3.75v-15.741595679915337h3.75v-15.861595679915338h-3.75v-15.741595679915337v-0.06Z"
     id="path4" />
  <path
     d="M66.2772224443567 1v15.861595679915338h3.75v15.741595679915337h-3.75v15.861595679915338h3.75v15.741595679915337h-3.75v15.861595679915338h31.698611222178346v-15.861595679915338h-3.75v-15.741595679915337h3.75v-15.861595679915338h-3.75v-15.741595679915337h3.75v-15.861595679915338Z"
     id="path6" />
  <path
     d="M102.66583366653504 1v15.801595679915337h-3.75v15.861595679915338h3.75v15.741595679915337h-3.75v15.861595679915338h3.75v15.741595679915337v0.06h24.198611222178346v-15.801595679915337h3.75v-15.861595679915338h-3.75v-15.741595679915337h3.75v-15.861595679915338h-3.75v-15.741595679915337v-0.06Z"
     id="path8" />
  <path
     d="M131.5544448887134 1v13.227996399929449h3.75v13.107996399929448h-3.75v13.227996399929449h13.37953707405945v3.75h13.43953707405945v-3.75h13.37953707405945v-13.227996399929449h-3.75v-13.107996399929448h3.75v-13.227996399929449Z"
     id="path10" />
  <path
     d="M135.3044448887134 45.37398919978834v13.167996399929448h-3.75v13.227996399929449h3.75v13.107996399929448v0.06h9.62953707405945v3.75h13.43953707405945v-3.75h9.62953707405945v-13.167996399929448h3.75v-13.227996399929449h-3.75v-13.107996399929448v-0.06Z"
     id="path12" />
  <path
     d="M172.69305611089175 1v13.227996399929449h3.75v13.107996399929448h-3.75v13.227996399929449h13.37953707405945v3.75h13.43953707405945v-3.75h13.37953707405945v-13.227996399929449h-3.75v-13.107996399929448h3.75v-13.227996399929449Z"
     id="path14" />
  <path
     d="M176.44305611089175 45.37398919978834v13.167996399929448h-3.75v13.227996399929449h3.75v13.107996399929448v0.06h9.62953707405945v3.75h13.43953707405945v-3.75h9.62953707405945v-13.167996399929448h3.75v-13.227996399929449h-3.75v-13.107996399929448v-0.06Z"
     id="path16" />
  <path
     d="M213.8316673330701 1v13.43953707405945h3.75v13.319537074059449h-3.75v13.43953707405945h13.43953707405945v-3.75h13.319537074059449v3.75h13.43953707405945v-13.43953707405945h-3.75v-13.319537074059449h3.75v-13.43953707405945h-13.43953707405945v3.75h-13.319537074059449v-3.75h-13.43953707405945Z"
     id="path18" />
  <path
     d="M213.8316673330701 42.758611222178345v128.6144448887134h39.563989199788345v-128.6144448887134Z"
     id="path20" />
  <path
     style="stroke-width:1"
     d="M 2.0724229,88.688028 V 104.5496 h 3.749643 v 15.74167 h -3.749643 v 15.86156 h 3.749643 v 15.74168 h -3.749643 v 15.86156 H 16.197659 33.638455 v -15.86156 h -3.749643 v -15.74168 h 3.749643 V 120.29127 H 29.888812 V 104.5496 h 3.749643 V 88.688028 H 16.197659 Z"
     id="path4584"
     inkscape:connector-curvature="0" />
  <path
     style="stroke-width:1"
     d="M 38.460899,88.688028 V 104.48965 H 34.71074 v 15.86156 h 3.750159 v 15.74168 H 34.71074 v 15.86157 h 3.750159 v 15.74168 0.0599 h 8.833569 15.232663 v -15.80161 h 3.750157 v -15.86154 h -3.750157 v -15.74168 h 3.750157 v -15.86156 h -3.750157 v -15.741672 -0.06 H 47.294468 Z"
     id="path4596"
     inkscape:connector-curvature="0" />
  <path
     style="stroke-width:1"
     d="M 67.349575,88.688028 V 104.5496 h 3.750159 v 15.74167 h -3.750159 v 15.86156 h 3.750159 v 15.74168 h -3.750159 v 15.86156 h 16.721976 14.844054 v -15.86156 h -3.74964 v -15.74168 h 3.74964 v -15.86156 h -3.74964 V 104.5496 h 3.74964 V 88.688028 H 84.071551 Z"
     id="path4592"
     inkscape:connector-curvature="0" />
  <path
     style="stroke-width:1"
     d="m 103.73805,88.688028 v 15.801622 h -3.750155 v 15.86156 h 3.750155 v 15.74168 h -3.750155 v 15.86157 h 3.750155 v 15.74168 0.0599 h 11.55433 12.5119 v -15.80161 h 3.75016 v -15.86157 h -3.75016 v -15.74165 h 3.75016 v -15.86156 h -3.75016 v -15.741672 -0.06 h -12.5119 z"
     id="path4588"
     inkscape:connector-curvature="0" />
</svg>
