<?xml version='1.0' standalone='no'?><!DOCTYPE svg PUBLIC '-//W3C//DTD SVG 1.1//EN' 'http://www.w3.org/Graphics/SVG/1.1/DTD/svg11.dtd'><svg width="400mm" height="300mm" viewBox="0 0 400 300" version="1.1" xmlns="http://www.w3.org/2000/svg"><path d="M1 1v15.861595679915338h3.75v15.741595679915337h-3.75v15.861595679915338h3.75v15.741595679915337h-3.75v15.861595679915338h31.698611222178346v-15.861595679915338h-3.75v-15.741595679915337h3.75v-15.861595679915338h-3.75v-15.741595679915337h3.75v-15.861595679915338Z"></path><path d="M37.38861122217835 1v15.801595679915337h-3.75v15.861595679915338h3.75v15.741595679915337h-3.75v15.861595679915338h3.75v15.741595679915337v0.06h24.198611222178346v-15.801595679915337h3.75v-15.861595679915338h-3.75v-15.741595679915337h3.75v-15.861595679915338h-3.75v-15.741595679915337v-0.06Z"></path><path d="M66.2772224443567 1v15.861595679915338h3.75v15.741595679915337h-3.75v15.861595679915338h3.75v15.741595679915337h-3.75v15.861595679915338h31.698611222178346v-15.861595679915338h-3.75v-15.741595679915337h3.75v-15.861595679915338h-3.75v-15.741595679915337h3.75v-15.861595679915338Z"></path><path d="M102.66583366653504 1v15.801595679915337h-3.75v15.861595679915338h3.75v15.741595679915337h-3.75v15.861595679915338h3.75v15.741595679915337v0.06h24.198611222178346v-15.801595679915337h3.75v-15.861595679915338h-3.75v-15.741595679915337h3.75v-15.861595679915338h-3.75v-15.741595679915337v-0.06Z"></path><path d="M131.5544448887134 1v13.227996399929449h3.75v13.107996399929448h-3.75v13.227996399929449h13.37953707405945v3.75h13.43953707405945v-3.75h13.37953707405945v-13.227996399929449h-3.75v-13.107996399929448h3.75v-13.227996399929449Z"></path><path d="M135.3044448887134 45.37398919978834v13.167996399929448h-3.75v13.227996399929449h3.75v13.107996399929448v0.06h9.62953707405945v3.75h13.43953707405945v-3.75h9.62953707405945v-13.167996399929448h3.75v-13.227996399929449h-3.75v-13.107996399929448v-0.06Z"></path><path d="M172.69305611089175 1v13.227996399929449h3.75v13.107996399929448h-3.75v13.227996399929449h13.37953707405945v3.75h13.43953707405945v-3.75h13.37953707405945v-13.227996399929449h-3.75v-13.107996399929448h3.75v-13.227996399929449Z"></path><path d="M176.44305611089175 45.37398919978834v13.167996399929448h-3.75v13.227996399929449h3.75v13.107996399929448v0.06h9.62953707405945v3.75h13.43953707405945v-3.75h9.62953707405945v-13.167996399929448h3.75v-13.227996399929449h-3.75v-13.107996399929448v-0.06Z"></path><path d="M213.8316673330701 1v13.43953707405945h3.75v13.319537074059449h-3.75v13.43953707405945h13.43953707405945v-3.75h13.319537074059449v3.75h13.43953707405945v-13.43953707405945h-3.75v-13.319537074059449h3.75v-13.43953707405945h-13.43953707405945v3.75h-13.319537074059449v-3.75h-13.43953707405945Z"></path><path d="M213.8316673330701 42.758611222178345v128.6144448887134h39.563989199788345v-128.6144448887134Z"></path></svg>