<?xml version="1.0" encoding="UTF-8" standalone="no"?>
<!-- Created with Inkscape (http://www.inkscape.org/) -->

<svg
   xmlns:dc="http://purl.org/dc/elements/1.1/"
   xmlns:cc="http://creativecommons.org/ns#"
   xmlns:rdf="http://www.w3.org/1999/02/22-rdf-syntax-ns#"
   xmlns:svg="http://www.w3.org/2000/svg"
   xmlns="http://www.w3.org/2000/svg"
   xmlns:sodipodi="http://sodipodi.sourceforge.net/DTD/sodipodi-0.dtd"
   xmlns:inkscape="http://www.inkscape.org/namespaces/inkscape"
   width="2440mm"
   height="1220mm"
   viewBox="0 0 2440 1220"
   version="1.1"
   id="svg6582"
   inkscape:version="0.92.2 5c3e80d, 2017-08-06"
   sodipodi:docname="Donghos_Small_Box.svg">
  <defs
     id="defs6576" />
  <sodipodi:namedview
     id="base"
     pagecolor="#ffffff"
     bordercolor="#666666"
     borderopacity="1.0"
     inkscape:pageopacity="0.0"
     inkscape:pageshadow="2"
     inkscape:zoom="0.28284271"
     inkscape:cx="716.24849"
     inkscape:cy="2194.1731"
     inkscape:document-units="mm"
     inkscape:current-layer="layer1"
     showgrid="false"
     inkscape:snap-global="true"
     inkscape:window-width="1440"
     inkscape:window-height="855"
     inkscape:window-x="51"
     inkscape:window-y="0"
     inkscape:window-maximized="0"
     inkscape:snap-bbox="true"
     inkscape:bbox-nodes="true"
     inkscape:snap-nodes="false"
     inkscape:snap-bbox-midpoints="false"
     inkscape:snap-bbox-edge-midpoints="true" />
  <metadata
     id="metadata6579">
    <rdf:RDF>
      <cc:Work
         rdf:about="">
        <dc:format>image/svg+xml</dc:format>
        <dc:type
           rdf:resource="http://purl.org/dc/dcmitype/StillImage" />
        <dc:title />
      </cc:Work>
    </rdf:RDF>
  </metadata>
  <g
     inkscape:label="Layer 1"
     inkscape:groupmode="layer"
     id="layer1"
     transform="translate(0,923)">
    <path
       style="fill:#ffd42a;fill-opacity:1;stroke:none;stroke-width:10;stroke-miterlimit:4;stroke-dasharray:none;stroke-dashoffset:0;stroke-opacity:1"
       d="M 124.72461 1228.3457 L 124.72461 2214.8008 L 1375.748 2214.8008 L 1375.748 1228.3457 L 124.72461 1228.3457 z "
       transform="matrix(0.26458333,0,0,0.26458333,0,-923)"
       id="rect11738" />
    <rect
       style="fill:#ffd42a;fill-opacity:1;stroke:none;stroke-width:2.64583325;stroke-miterlimit:4;stroke-dasharray:none;stroke-dashoffset:0;stroke-opacity:1"
       id="rect11738-5"
       width="331"
       height="288"
       x="33.000168"
       y="-312.00076" />
    <circle
       style="fill:#ff0000;fill-opacity:1;stroke:none;stroke-width:2.64583325;stroke-miterlimit:4;stroke-dasharray:none;stroke-dashoffset:0;stroke-opacity:1"
       id="path17507-6-7-6-8"
       cx="15"
       cy="-6.0010757"
       r="15" />
    <circle
       style="fill:#ff0000;fill-opacity:1;stroke:none;stroke-width:2.64583325;stroke-miterlimit:4;stroke-dasharray:none;stroke-dashoffset:0;stroke-opacity:1"
       id="path17507-6-7-6-7"
       cx="15.000234"
       cy="-908"
       r="15" />
    <rect
       style="fill:#ffd42a;fill-opacity:1;stroke:none;stroke-width:2.64583325;stroke-miterlimit:4;stroke-dasharray:none;stroke-dashoffset:0;stroke-opacity:1"
       id="rect11738-7"
       width="261"
       height="266"
       x="33.000168"
       y="-889" />
    <path
       style="fill:#008000;fill-opacity:1;stroke:none;stroke-width:0.99999982;stroke-miterlimit:4;stroke-dasharray:none;stroke-dashoffset:0;stroke-opacity:1"
       d="M 113.38672 117.16602 L 113.38672 169.13477 L 113.38672 1093.2285 L 113.38672 1145.1973 L 1122.5195 1145.1973 L 1122.5195 1093.2285 L 1122.5195 169.13477 L 1122.5195 117.16602 L 1070.5527 117.16602 L 165.35547 117.16602 L 113.38672 117.16602 z M 165.35547 169.13477 L 1070.5527 169.13477 L 1070.5527 1093.2285 L 165.35547 1093.2285 L 165.35547 169.13477 z "
       transform="matrix(0.26458333,0,0,0.26458333,0,-923)"
       id="rect5457" />
    <path
       style="fill:#008000;fill-opacity:1;stroke:none;stroke-width:0.99999982;stroke-miterlimit:4;stroke-dasharray:none;stroke-dashoffset:0;stroke-opacity:1"
       d="M 113.38477 1217.0059 L 113.38477 1268.9746 L 113.38477 2174.1719 L 113.38477 2226.1406 L 1387.0859 2226.1406 L 1387.0859 2174.1719 L 1387.0859 1217.0059 L 1375.748 1217.0059 L 1335.1172 1217.0059 L 165.35352 1217.0059 L 113.38477 1217.0059 z M 165.35352 1268.9746 L 1335.1172 1268.9746 L 1335.1172 2174.1719 L 165.35352 2174.1719 L 165.35352 1268.9746 z "
       transform="matrix(0.26458333,0,0,0.26458333,0,-923)"
       id="rect5457-7-9-3-8" />
    <path
       style="fill:#008000;fill-opacity:1;stroke:none;stroke-width:0.99999982;stroke-miterlimit:4;stroke-dasharray:none;stroke-dashoffset:0;stroke-opacity:1"
       d="M 113.38672 2297.9492 L 113.38672 2349.918 L 113.38672 3409.1289 L 113.38672 3409.1309 L 1387.0879 3409.1309 L 1387.0879 3357.1621 L 1387.0879 2349.918 L 1387.0879 2297.9492 L 1335.1191 2297.9492 L 165.35547 2297.9492 L 113.38672 2297.9492 z M 165.35547 2349.918 L 1335.1191 2349.918 L 1335.1191 3357.1621 L 165.35547 3357.1621 L 165.35547 2349.918 z "
       transform="matrix(0.26458333,0,0,0.26458333,0,-923)"
       id="rect5457-7-9-3-8-8" />
    <rect
       style="fill:#ffd42a;fill-opacity:1;stroke:none;stroke-width:2.64583325;stroke-miterlimit:4;stroke-dasharray:none;stroke-dashoffset:0;stroke-opacity:1"
       id="rect11738-6"
       width="331.00003"
       height="261"
       x="-720.00012"
       y="316.00064"
       transform="scale(-1)" />
    <rect
       style="fill:#ffd42a;fill-opacity:1;stroke:none;stroke-width:2.64583325;stroke-miterlimit:4;stroke-dasharray:none;stroke-dashoffset:0;stroke-opacity:1"
       id="rect11738-5-5"
       width="331.00003"
       height="288"
       x="-719.99988"
       y="602.00031"
       transform="scale(-1)" />
    <circle
       style="fill:#ff0000;fill-opacity:1;stroke:none;stroke-width:2.64583325;stroke-miterlimit:4;stroke-dasharray:none;stroke-dashoffset:0;stroke-opacity:1"
       id="path17507-6-7-6-8-7"
       cx="-738"
       cy="908"
       r="15"
       transform="scale(-1)" />
    <circle
       style="fill:#ff0000;fill-opacity:1;stroke:none;stroke-width:2.64583325;stroke-miterlimit:4;stroke-dasharray:none;stroke-dashoffset:0;stroke-opacity:1"
       id="path17507-6-7-6-7-6"
       cx="-737.99976"
       cy="6.0010967"
       r="15"
       transform="scale(-1)" />
    <rect
       style="fill:#ffd42a;fill-opacity:1;stroke:none;stroke-width:2.64583325;stroke-miterlimit:4;stroke-dasharray:none;stroke-dashoffset:0;stroke-opacity:1"
       id="rect11738-7-2"
       width="261"
       height="266"
       x="-719.99988"
       y="25.001099"
       transform="scale(-1)" />
    <path
       style="fill:#008000;fill-opacity:1;stroke:none;stroke-width:0.99999982;stroke-miterlimit:4;stroke-dasharray:none;stroke-dashoffset:0;stroke-opacity:1"
       d="M 1723.4648 2377.3184 L 1723.4648 2429.2871 L 1723.4648 3353.3809 L 1723.4648 3405.3496 L 2732.5977 3405.3496 L 2732.5977 3353.3809 L 2732.5977 2429.2871 L 2732.5977 2377.3184 L 2680.6289 2377.3184 L 1775.4316 2377.3184 L 1723.4648 2377.3184 z M 1775.4316 2429.2871 L 2680.6289 2429.2871 L 2680.6289 3353.3809 L 1775.4316 3353.3809 L 1775.4316 2429.2871 z "
       transform="matrix(0.26458333,0,0,0.26458333,0,-923)"
       id="rect5457-0" />
    <path
       style="fill:#008000;fill-opacity:1;stroke:none;stroke-width:0.99999982;stroke-miterlimit:4;stroke-dasharray:none;stroke-dashoffset:0;stroke-opacity:1"
       d="M 1458.8984 1296.375 L 1458.8984 1348.3438 L 1458.8984 2305.5098 L 1510.8672 2305.5098 L 2680.6309 2305.5098 L 2732.5996 2305.5098 L 2732.5996 2253.541 L 2732.5996 1348.3438 L 2732.5996 1296.375 L 2680.6309 1296.375 L 1510.8672 1296.375 L 1458.8984 1296.375 z M 1510.8672 1348.3438 L 2680.6309 1348.3438 L 2680.6309 2253.541 L 1510.8672 2253.541 L 1510.8672 1348.3438 z "
       transform="matrix(0.26458333,0,0,0.26458333,0,-923)"
       id="rect5457-7-9-3-8-9" />
    <path
       style="fill:#008000;fill-opacity:1;stroke:none;stroke-width:0.99999982;stroke-miterlimit:4;stroke-dasharray:none;stroke-dashoffset:0;stroke-opacity:1"
       d="M 1458.8965 113.38477 L 1458.8965 165.35352 L 1458.8965 1224.5645 L 1458.8965 1224.5664 L 2680.6289 1224.5664 L 2732.5977 1224.5664 L 2732.5977 1172.5977 L 2732.5977 165.35352 L 2732.5996 165.35352 L 2732.5996 113.38477 L 2732.5977 113.38477 L 2680.6289 113.38477 L 1510.8652 113.38477 L 1458.8965 113.38477 z M 1510.8652 165.35352 L 2680.6289 165.35352 L 2680.6289 1172.5977 L 1510.8652 1172.5977 L 1510.8652 165.35352 z "
       transform="matrix(0.26458333,0,0,0.26458333,0,-923)"
       id="rect5457-7-9-3-8-8-36" />
    <circle
       style="fill:#ff0000;fill-opacity:1;stroke:none;stroke-width:2.64583325;stroke-miterlimit:4;stroke-dasharray:none;stroke-dashoffset:0;stroke-opacity:1"
       id="path17507-6-7-6-8-7-4"
       cx="-339.98959"
       cy="737.52081"
       r="15"
       transform="scale(-1)" />
    <circle
       style="fill:#ff0000;fill-opacity:1;stroke:none;stroke-width:2.64583325;stroke-miterlimit:4;stroke-dasharray:none;stroke-dashoffset:0;stroke-opacity:1"
       id="path17507-6-7-6-8-7-7"
       cx="-414.07294"
       cy="168.66667"
       r="15"
       transform="scale(-1)" />
    <circle
       style="fill:#ff0000;fill-opacity:1;stroke:none;stroke-width:0.26458332;stroke-miterlimit:4;stroke-dasharray:none;stroke-dashoffset:0;stroke-opacity:1"
       id="path5444"
       cx="198.50017"
       cy="-168.00076"
       r="16.5" />
  </g>
</svg>
