<?xml version="1.0" encoding="UTF-8" standalone="no"?>
<!-- Created with Inkscape (http://www.inkscape.org/) -->

<svg
   xmlns:dc="http://purl.org/dc/elements/1.1/"
   xmlns:cc="http://creativecommons.org/ns#"
   xmlns:rdf="http://www.w3.org/1999/02/22-rdf-syntax-ns#"
   xmlns:svg="http://www.w3.org/2000/svg"
   xmlns="http://www.w3.org/2000/svg"
   xmlns:sodipodi="http://sodipodi.sourceforge.net/DTD/sodipodi-0.dtd"
   xmlns:inkscape="http://www.inkscape.org/namespaces/inkscape"
   version="1.1"
   id="svg2"
   xml:space="preserve"
   width="1356.6992"
   height="2001.8645"
   viewBox="0 0 1356.6992 2001.8645"
   sodipodi:docname="makeabox.io-20201005055131-mm-159.5[w]x159.5[h]x81.0[d]-4.330[t]-0.1000[k]-0.025[s].svg"
   inkscape:version="0.92.2 5c3e80d, 2017-08-06"><metadata
     id="metadata8"><rdf:RDF><cc:Work
         rdf:about=""><dc:format>image/svg+xml</dc:format><dc:type
           rdf:resource="http://purl.org/dc/dcmitype/StillImage" /><dc:title></dc:title></cc:Work></rdf:RDF></metadata><defs
     id="defs6" /><sodipodi:namedview
     pagecolor="#ffffff"
     bordercolor="#666666"
     borderopacity="1"
     objecttolerance="10"
     gridtolerance="10"
     guidetolerance="10"
     inkscape:pageopacity="0"
     inkscape:pageshadow="2"
     inkscape:window-width="1365"
     inkscape:window-height="862"
     id="namedview4"
     showgrid="false"
     inkscape:zoom="1"
     inkscape:cx="273.6939"
     inkscape:cy="1489.2258"
     inkscape:window-x="27"
     inkscape:window-y="0"
     inkscape:window-maximized="0"
     inkscape:current-layer="g10"
     inkscape:measure-start="996.227,1328.33"
     inkscape:measure-end="996.227,1021.81"
     inkscape:snap-bbox="true"
     inkscape:snap-bbox-edge-midpoints="true"
     inkscape:snap-nodes="false" /><g
     id="g10"
     inkscape:groupmode="layer"
     inkscape:label="makeabox.io-20201005055131-mm-159.5[w]x159.5[h]x81.0[d]-4.330[t]-0.1000[k]-0.025[s]"
     transform="matrix(1.3333333,0,0,-1.3333333,0,2001.8645)"><path
       style="fill:#ffcc00;stroke:none;stroke-width:0.75;stroke-linecap:butt;stroke-linejoin:miter;stroke-miterlimit:4;stroke-dasharray:none;stroke-opacity:1"
       d="M 11.462402,785.45597 V 759.66009 H 23.736333 V 734.43257 H 11.462402 V 708.63662 H 23.736333 V 683.40909 H 11.462402 V 657.61322 H 23.736333 V 632.38419 H 11.462402 V 606.58982 H 23.736333 V 581.36079 H 11.462402 v -25.79445 h 42.698731 29.85937 30.424807 29.85792 30.4248 29.85937 30.42481 29.85791 30.42628 29.8579 30.42481 29.85791 30.42627 29.85791 42.69873 v 25.79445 h -12.27392 v 25.22903 h 12.27392 v 25.79437 h -12.27392 v 25.22903 h 12.27392 v 25.79587 h -12.27392 v 25.22753 h 12.27392 v 25.79595 h -12.27392 v 25.22752 h 12.27392 v 25.79588 H 445.7212 415.86329 385.43702 355.57911 325.1543 295.2964 264.87012 235.01221 204.5874 174.72803 144.30323 114.44531 84.020503 54.161133 Z"
       id="path40"
       inkscape:connector-curvature="0" /><path
       style="fill:#ffcc00;stroke:none;stroke-width:0.75;stroke-linecap:butt;stroke-linejoin:miter;stroke-miterlimit:4;stroke-dasharray:none;stroke-opacity:1"
       d="m 11.462401,1493.125 v -25.7945 h 12.27393 v -25.229 h -12.27393 v -25.7944 h 12.27393 v -25.229 h -12.27393 v -25.7959 h 12.27393 v -25.2276 h -12.27393 v -25.7959 h 12.27393 v -25.2275 h -12.27393 v -25.7959 h 42.698731 29.859376 30.424812 29.85791 30.4248 29.85938 30.4248 29.85792 30.42627 29.8579 30.42481 29.85792 30.42627 29.8579 42.69873 v 25.7959 h -12.27392 v 25.2275 h 12.27392 v 25.7959 h -12.27392 v 25.2276 h 12.27392 v 25.7959 h -12.27392 v 25.229 h 12.27392 v 25.7944 h -12.27392 v 25.229 h 12.27392 v 25.7945 H 445.7212 415.8633 385.43703 355.57911 325.1543 295.2964 264.87013 235.01221 204.58741 174.72803 144.30323 114.44532 84.020508 54.161132 Z"
       id="path622"
       inkscape:connector-curvature="0" /><path
       style="fill:#ffcc00;stroke:none;stroke-width:0.75;stroke-linecap:butt;stroke-linejoin:miter;stroke-miterlimit:4;stroke-dasharray:none;stroke-opacity:1"
       d="m 11.46313,1052.8574 h 12.273908 v -25.5118 h 30.424801 29.85795 30.424801 29.85937 30.4248 29.85788 30.4248 29.85938 30.4248 29.85795 30.4248 29.85937 30.42481 29.85787 30.4248 v 25.5118 h 12.27398 v 25.7959 h -12.27398 v 25.2275 h 12.27398 v 25.7959 h -12.27398 v 25.229 h 12.27398 v 25.7944 h -12.27398 v 25.2291 h 12.27398 v 25.7944 h -12.27398 v 25.5117 h -30.4248 -29.85787 -30.42481 -29.85937 -30.4248 -29.85795 -30.4248 -29.85938 -30.4248 -29.85788 -30.4248 -29.85937 -30.424801 -29.85795 -30.4248 v -25.5117 H 11.46313 v -25.7944 h 12.273908 v -25.2291 H 11.46313 v -25.7944 h 12.273908 v -25.229 H 11.46313 v -25.7959 h 12.273908 v -25.2275 H 11.46313 Z"
       id="path1062"
       inkscape:connector-curvature="0" /><path
       style="fill:#ffcc00;stroke:none;stroke-width:0.75;stroke-linecap:butt;stroke-linejoin:miter;stroke-miterlimit:4;stroke-dasharray:none;stroke-opacity:1"
       d="m 11.463104,816.96767 h 12.27391 v -25.5117 h 30.424801 29.85795 30.424805 29.85937 30.4248 29.85788 30.4248 29.85938 30.4248 29.85795 30.4248 29.85937 30.42481 29.8579 30.4248 v 25.5117 h 12.274 v 25.79445 h -12.274 v 25.22895 h 12.274 v 25.79595 h -12.274 v 25.22752 h 12.274 v 25.79588 h -12.274 v 25.22752 h 12.274 v 25.79596 h -12.274 v 25.5117 h -30.4248 -29.8579 -30.42481 -29.85937 -30.4248 -29.85795 -30.4248 -29.85938 -30.4248 -29.85788 -30.4248 -29.85937 -30.424804 -29.85795 -30.424801 v -25.5117 h -12.27391 v -25.79596 h 12.27391 v -25.22752 h -12.27391 v -25.79588 h 12.27391 v -25.22752 h -12.27391 v -25.79595 h 12.27391 v -25.22895 h -12.27391 z"
       id="path7423"
       inkscape:connector-curvature="0" /></g></svg>